<?xml version="1.0" encoding="UTF-8" standalone="no"?>
<!-- Created with Inkscape (http://www.inkscape.org/) -->

<svg
   xmlns:dc="http://purl.org/dc/elements/1.1/"
   xmlns:cc="http://creativecommons.org/ns#"
   xmlns:rdf="http://www.w3.org/1999/02/22-rdf-syntax-ns#"
   xmlns:svg="http://www.w3.org/2000/svg"
   xmlns="http://www.w3.org/2000/svg"
   xmlns:xlink="http://www.w3.org/1999/xlink"
   xmlns:sodipodi="http://sodipodi.sourceforge.net/DTD/sodipodi-0.dtd"
   xmlns:inkscape="http://www.inkscape.org/namespaces/inkscape"
   width="203.38257mm"
   height="152.36455mm"
   viewBox="0 0 720.6469 539.87438"
   id="svg2"
   version="1.1"
   inkscape:version="0.91 r13725"
   sodipodi:docname="binary-ocean.svg">
  <defs
     id="defs4">
    <inkscape:path-effect
       effect="envelope"
       id="path-effect4401"
       is_visible="true"
       yy="true"
       xx="false"
       bendpath1="m -128.41699,857.48479 c 349.73675,-1.29731 211.14941,-268.66708 675.70312,4.24264"
       bendpath2="m 547.28613,820.71524 0,68.07129"
       bendpath3="m -128.41699,888.78653 c 139.12878,97.85491 402.51423,-86.54936 679.99063,25.45584"
       bendpath4="m -128.41699,820.71524 0,68.07129"
       bendpath1-nodetypes="cc"
       bendpath3-nodetypes="cc" />
    <inkscape:path-effect
       effect="envelope"
       id="path-effect4364"
       is_visible="true"
       yy="true"
       xx="false"
       bendpath1="M -187.81438,532.21533 C -3.2326243,689.03736 101.11589,437.44706 503.44509,611.41129"
       bendpath2="m 496.37402,641.10977 0,68.07129"
       bendpath3="M -179.3291,709.18106 C 45.952096,754.42029 123.92258,413.541 493.54559,734.6369"
       bendpath4="m -179.3291,641.10977 0,68.07129"
       bendpath1-nodetypes="cc"
       bendpath3-nodetypes="cc" />
    <inkscape:path-effect
       effect="envelope"
       id="path-effect4327"
       is_visible="true"
       yy="true"
       xx="false"
       bendpath1="m -140.90279,195.63147 c 278.66128,-3.77124 332.99181,343.31903 658.2861,18.38477"
       bendpath2="m 513.34473,339.88125 0,68.07129"
       bendpath3="M -158.40332,407.95254 C 21.757902,572.11795 86.35873,312.39338 497.19039,484.32007"
       bendpath4="m -158.40332,339.88125 0,68.07129"
       bendpath1-nodetypes="cc"
       bendpath3-nodetypes="cc" />
    <inkscape:path-effect
       effect="envelope"
       id="path-effect4292"
       is_visible="true"
       yy="true"
       xx="true"
       bendpath1="M -145.29059,64.742876 C 90.798831,355.84821 230.45826,451.42906 404.02637,201.92159"
       bendpath2="m 404.02637,336.27188 0,68.07129"
       bendpath3="m -153.1123,404.34317 557.13867,0"
       bendpath4="m -153.1123,336.27188 0,68.07129"
       bendpath1-nodetypes="cc" />
    <inkscape:path-effect
       effect="envelope"
       id="path-effect4238"
       is_visible="true"
       yy="true"
       xx="true"
       bendpath1="m -257.05519,224.71719 771.87257,258"
       bendpath2="m 514.81738,482.71719 0,68.07129"
       bendpath3="m -271.54004,550.78848 786.35742,0"
       bendpath4="m -271.54004,482.71719 0,68.07129"
       bendpath1-nodetypes="cc" />
    <inkscape:path-effect
       effect="envelope"
       id="path-effect4197"
       is_visible="true"
       yy="true"
       xx="false"
       bendpath1="M -161.1123,281.27188 C 89.396989,254.56953 104.87679,469.36345 481.65756,253.85419"
       bendpath2="m 508.30664,281.27188 0,68.07129"
       bendpath3="m -161.1123,349.34317 c 260.585872,-52.46003 340.88199,402.39082 669.41894,0"
       bendpath4="m -161.1123,281.27188 0,68.07129"
       bendpath3-nodetypes="cc"
       bendpath1-nodetypes="cc" />
    <inkscape:path-effect
       effect="skeletal"
       id="path-effect4138"
       is_visible="true"
       pattern="M 0,5 C 0,2.24 2.24,0 5,0 7.76,0 10,2.24 10,5 10,7.76 7.76,10 5,10 2.24,10 0,7.76 0,5 Z"
       copytype="single_stretched"
       prop_scale="1"
       scale_y_rel="false"
       spacing="0"
       normal_offset="0"
       tang_offset="0"
       prop_units="false"
       vertical_pattern="false"
       fuse_tolerance="0" />
    <filter
       inkscape:collect="always"
       style="color-interpolation-filters:sRGB"
       id="filter4528"
       x="-0.0069872593"
       width="1.0139745"
       y="-0.042670447"
       height="1.0853409">
      <feGaussianBlur
         inkscape:collect="always"
         stdDeviation="0.15033272"
         id="feGaussianBlur4530" />
    </filter>
    <filter
       inkscape:collect="always"
       style="color-interpolation-filters:sRGB"
       id="filter5241"
       x="-0.012541856"
       width="1.0250837"
       y="-0.031869367"
       height="1.0637387">
      <feGaussianBlur
         inkscape:collect="always"
         stdDeviation="2.892017"
         id="feGaussianBlur5243" />
    </filter>
    <filter
       inkscape:collect="always"
       style="color-interpolation-filters:sRGB"
       id="filter5330"
       x="-0.014443493"
       width="1.028887"
       y="-0.023894642"
       height="1.0477893">
      <feGaussianBlur
         inkscape:collect="always"
         stdDeviation="1.7096454"
         id="feGaussianBlur5332" />
    </filter>
    <linearGradient
       inkscape:collect="always"
       xlink:href="#linearGradient2416"
       id="linearGradient2418"
       x1="73.423393"
       y1="187.48232"
       x2="-26.566921"
       y2="189.06981"
       gradientUnits="userSpaceOnUse" />
    <linearGradient
       inkscape:collect="always"
       id="linearGradient2416">
      <stop
         style="stop-color:#4d4d4d;stop-opacity:1;"
         offset="0"
         id="stop2412" />
      <stop
         style="stop-color:#4d4d4d;stop-opacity:0;"
         offset="1"
         id="stop2414" />
    </linearGradient>
    <linearGradient
       inkscape:collect="always"
       xlink:href="#linearGradient942"
       id="linearGradient944"
       x1="58.34214"
       y1="189.47552"
       x2="80.853218"
       y2="189.47552"
       gradientUnits="userSpaceOnUse" />
    <linearGradient
       inkscape:collect="always"
       id="linearGradient942">
      <stop
         style="stop-color:#00ccff;stop-opacity:1;"
         offset="0"
         id="stop938" />
      <stop
         style="stop-color:#00ccff;stop-opacity:0;"
         offset="1"
         id="stop940" />
    </linearGradient>
  </defs>
  <sodipodi:namedview
     id="base"
     pagecolor="#ffffff"
     bordercolor="#666666"
     borderopacity="1.0"
     inkscape:pageopacity="0.0"
     inkscape:pageshadow="2"
     inkscape:zoom="0.70710678"
     inkscape:cx="334.20508"
     inkscape:cy="233.10252"
     inkscape:document-units="px"
     inkscape:current-layer="layer1"
     showgrid="false"
     showborder="false"
     inkscape:window-width="1215"
     inkscape:window-height="776"
     inkscape:window-x="65"
     inkscape:window-y="24"
     inkscape:window-maximized="1"
     fit-margin-top="0"
     fit-margin-left="0"
     fit-margin-right="0"
     fit-margin-bottom="0" />
  <metadata
     id="metadata7">
    <rdf:RDF>
      <cc:Work
         rdf:about="">
        <dc:format>image/svg+xml</dc:format>
        <dc:type
           rdf:resource="http://purl.org/dc/dcmitype/StillImage" />
        <dc:title></dc:title>
      </cc:Work>
    </rdf:RDF>
  </metadata>
  <g
     inkscape:label="Layer 1"
     inkscape:groupmode="layer"
     id="layer1"
     transform="translate(182.96666,-222.05941)">
    <g
       style="font-style:normal;font-weight:normal;font-size:90px;line-height:125%;font-family:sans-serif;letter-spacing:0px;word-spacing:0px;opacity:0.59100001;fill:#0044aa;fill-opacity:1;stroke:none;stroke-width:1px;stroke-linecap:butt;stroke-linejoin:miter;stroke-opacity:1"
       id="flowRoot4160"
       transform="matrix(1.0506928,0,0,0.87534713,-3.8585496,8.1562275)">
      <path
         style="fill:#0044aa"
         d="m -160.19195,340.11883 c 5.51201,-1.01734 11.06402,-1.83978 16.64123,-2.45699 -1.12997,-16.2642 -1.68814,-32.58317 -1.67451,-48.9569 -5.49656,1.45776 -11.04267,3.06368 -16.63009,4.84046 0.15668,-2.71864 0.34247,-5.44173 0.55737,-8.16928 5.40739,-1.67623 10.75422,-3.20237 16.03558,-4.60463 2.97959,-0.20671 5.96163,-0.38037 8.94529,-0.5201 0.63561,18.86347 1.61268,37.70238 2.93121,56.51673 5.60232,-0.36462 11.22086,-0.51774 16.84084,-0.44899 0.16858,2.41873 0.33053,4.83741 0.48586,7.25606 -14.60551,-0.21119 -29.22101,1.15938 -43.55936,3.91378 -0.21504,-2.45317 -0.40618,-4.90989 -0.57342,-7.37014 z"
         id="path4169"
         inkscape:connector-curvature="0" />
      <path
         style="fill:#0044aa"
         d="m -82.826099,287.50448 c -4.685577,-0.52206 -7.658401,1.51651 -9.177063,5.83246 -1.501253,4.31084 -1.528311,10.93897 -0.290277,19.92745 1.23961,8.99992 3.12782,15.75663 6.141395,20.68483 3.019734,4.86341 7.065983,7.77059 12.248608,8.88834 0.884929,0.19086 1.726457,0.31359 2.525025,0.36614 0,0 10e-7,0 10e-7,0 2.352682,0.15521 4.331728,-0.30124 5.922773,-1.41673 1.042278,-0.73177 1.917318,-1.74677 2.612858,-3.05394 2.134641,-3.97783 2.653359,-10.73518 0.946078,-20.27799 -1.708687,-9.55068 -4.797238,-17.18234 -8.402741,-22.33258 -1.187391,-1.71532 -2.444566,-3.18098 -3.75764,-4.38973 -2.004108,-1.84544 -4.140922,-3.0966 -6.409081,-3.75774 0,0 -1e-6,0 -1e-6,0 -0.770306,-0.22436 -1.556447,-0.38098 -2.359935,-0.47051 z m -1.970458,-7.3303 c 0.766649,0.0703 1.523484,0.17456 2.271323,0.31319 0,0 10e-7,0 10e-7,0 2.002307,0.37114 3.941435,0.98893 5.825554,1.85894 4.14344,1.91305 8.049374,5.06598 11.615827,9.43043 5.767785,7.00639 10.483613,17.02565 12.739076,29.06735 2.256394,12.04668 0.974594,20.38473 -2.869695,25.15017 -2.364219,2.94092 -5.641642,4.46522 -9.72872,4.7559 -1.85667,0.13182 -3.881288,0.0104 -6.076872,-0.34341 0,0 -1e-6,0 -1e-6,0 -0.819837,-0.13212 -1.663231,-0.29654 -2.530598,-0.49218 -8.32263,-1.87721 -14.85394,-5.71882 -19.733636,-11.98721 -4.883999,-6.33996 -7.724482,-14.63759 -9.033462,-25.55467 -1.30313,-10.86828 -0.47899,-19.08443 2.425185,-24.61911 2.91535,-5.53609 7.791443,-8.24914 15.096018,-7.5794 z"
         id="path4171"
         inkscape:connector-curvature="0" />
      <path
         style="fill:#0044aa"
         d="m -30.302275,354.84995 c 5.12444,2.1145 10.181218,4.3676 15.173811,6.7384 -1.442655,-19.19932 -5.452525,-39.34933 -12.029611,-60.45004 -4.647282,-0.16073 -9.408903,-0.30591 -14.204904,-0.41477 -0.126855,-0.003 -0.253765,-0.006 -0.380731,-0.009 -0.940755,-3.1928 -1.943733,-6.40506 -3.008936,-9.63678 0.123379,-0.003 0.246708,-0.006 0.369987,-0.008 4.624978,-0.1039 9.25437,-0.18449 13.750246,-0.25361 2.890625,0.72507 5.773171,1.48163 8.647189,2.26809 8.842096,25.72954 14.1301785,50.04276 15.8642471,72.93965 4.2968734,2.19017 8.5463224,4.46057 12.7506692,6.79724 0.6056224,0.33677 1.2103465,0.67485 1.8141896,1.0142 0.2368007,3.0774 0.4136919,6.12831 0.5306735,9.15271 -0.6058099,-0.35663 -1.2124995,-0.71189 -1.8200887,-1.06575 -11.9647415,-6.96743 -24.2791577,-13.37345 -37.0069597,-18.87155 -0.09641,-2.71659 -0.24634,-5.4502 -0.449782,-8.20082 z"
         id="path4173"
         inkscape:connector-curvature="0" />
      <path
         style="fill:#0044aa"
         d="m 27.554728,385.12477 c 4.678625,2.88912 9.319833,5.83911 13.933173,8.8329 -1.676915,-22.93464 -6.129042,-47.30046 -13.356381,-73.09747 -4.527849,-0.41019 -9.080448,-0.86949 -13.681959,-1.35617 -1.095503,-3.92988 -2.26225,-7.89451 -3.500242,-11.89389 4.498192,0.23876 8.951324,0.44769 13.379283,0.60532 2.794963,1.02813 5.585677,2.06844 8.373345,3.11717 9.498605,31.36363 15.213691,60.73455 17.145258,88.11276 4.583064,3.04061 9.144045,6.11469 13.692488,9.20516 0.240932,3.67941 0.418188,7.32457 0.531769,10.93548 -11.825788,-8.47939 -23.750206,-16.82608 -35.95199,-24.73654 -0.127358,-3.21171 -0.315606,-6.45328 -0.564744,-9.72472 z"
         id="path4175"
         inkscape:connector-curvature="0" />
      <path
         style="fill:#0044aa"
         d="m 84.017514,340.56366 c -4.365397,-1.70383 -6.494822,1.18826 -6.820486,8.23826 -0.316748,7.16177 1.212075,18.13567 3.653079,33.45789 2.428391,15.24306 4.447646,26.55435 7.194114,35.41925 2.719407,8.67068 6.046092,14.54341 10.371358,17.49754 4.311441,2.9447 7.508761,1.48009 9.198531,-4.90665 1.68929,-6.32522 1.90523,-17.72219 -0.4665,-34.04637 -2.38292,-16.40113 -6.21288,-29.79894 -10.2771,-39.06609 -4.095607,-9.41858 -8.503346,-14.89614 -12.852996,-16.59383 z m -3.469512,-13.15519 c 6.929677,2.45213 13.901372,9.80959 20.329958,22.52013 6.37608,12.53199 11.91843,29.89544 14.83966,50.57565 2.90807,20.58712 1.84656,34.81595 -1.45083,42.4813 -3.32121,7.74849 -8.71551,8.63796 -15.571836,3.67063 -6.908594,-5.00519 -12.131713,-13.48201 -16.286094,-25.03891 -2.297584,-6.44499 -4.215595,-13.67715 -5.966486,-21.9188 -1.420738,-6.69495 -2.713522,-13.96358 -4.046894,-22.08909 -1.338236,-8.15516 -2.409977,-15.29159 -3.093756,-21.58076 -0.839464,-7.73822 -1.067069,-14.00648 -0.483276,-18.83353 1.065639,-8.73114 4.735089,-12.26168 11.729554,-9.78662 z"
         id="path4177"
         inkscape:connector-curvature="0" />
      <path
         style="fill:#0044aa"
         d="m 136.51247,456.68808 c 3.81456,2.24104 7.65522,4.42815 11.52713,6.55215 0.93251,0.51168 1.86667,1.01966 2.8025,1.52375 -0.77857,-32.57823 -5.16996,-66.59463 -13.17417,-102.04919 -0.83563,0.1545 -1.67132,0.30219 -2.50719,0.44314 -3.85052,0.64797 -7.69627,1.15087 -11.54174,1.51347 -1.19473,-5.48283 -2.48003,-11.00633 -3.85591,-16.57049 3.76073,-0.5769 7.52009,-1.29055 11.28195,-2.14373 0.79161,-0.17959 1.58313,-0.36529 2.37468,-0.55714 2.90341,0.66028 5.81489,1.28225 8.73365,1.86391 10.75688,42.50551 16.59069,83.20534 17.50142,122.09947 4.87559,2.46018 9.79966,4.80003 14.77847,6.99167 0.13756,5.22512 0.19416,10.42504 0.1698,15.59974 -9.02522,-4.36645 -17.82745,-9.20994 -26.45061,-14.3535 -3.86026,-2.30245 -7.68458,-4.66325 -11.479,-7.07259 0.024,-4.57899 -0.0297,-9.19254 -0.16098,-13.84066 z"
         id="path4179"
         inkscape:connector-curvature="0" />
      <path
         style="fill:#0044aa"
         d="m 194.83185,484.33095 c 1.16167,0.3954 2.32608,0.78135 3.49317,1.15748 3.98293,1.28056 7.99207,2.44644 12.02464,3.48362 -2.02496,-38.47239 -7.2063,-77.44683 -15.54403,-116.92332 -3.36785,1.56865 -6.74113,3.02504 -10.13375,4.36743 -1.3793,0.54366 -2.75938,1.0678 -4.14068,1.57268 -1.27,-6.20795 -2.63063,-12.43691 -4.0819,-18.68689 1.35653,-0.56109 2.7124,-1.14027 4.06818,-1.73773 3.3103,-1.46045 6.60846,-3.02443 9.91211,-4.68919 2.9282,0.0893 5.85691,0.13382 8.78511,0.13466 0,0 0.12016,1e-5 0.12016,1e-5 10.73569,46.4992 17.58101,92.55143 20.53597,138.15667 5.25465,1.06986 10.55239,1.91139 15.87018,2.50981 0.53759,6.02279 1.0239,12.04335 1.45894,18.0617 -5.54885,-0.74775 -11.06312,-1.76861 -16.51679,-3.04473 -7.41832,-1.73535 -14.72618,-3.93741 -21.90776,-6.5162 -1.18655,-0.42623 -2.36956,-0.86275 -3.54897,-1.30914 -0.0546,-5.49487 -0.18609,-11.00715 -0.39458,-16.53686 z"
         id="path4181"
         inkscape:connector-curvature="0" />
      <path
         style="fill:#0044aa"
         d="m 253.46851,363.29279 c -4.50929,0.71488 -6.8009,6.75317 -6.98959,18.19809 -0.1736,11.37897 1.76893,28.15122 5.44296,50.50443 3.67198,22.34066 7.22007,38.86846 11.36962,49.98933 4.1362,10.95468 8.78835,16.27796 13.87483,15.62347 3.18771,-0.41018 5.48823,-3.02981 6.83719,-7.77607 0.8053,-2.83808 1.27007,-6.42988 1.3967,-10.77478 0.35736,-11.73909 -1.72256,-28.66851 -5.95035,-51.04077 -4.2283,-22.37496 -8.46871,-38.98635 -12.76143,-49.66693 -1.60518,-4.03713 -3.2232,-7.2607 -4.85994,-9.67865 -2.7411,-4.04606 -5.52872,-5.82697 -8.35999,-5.37812 z m -3.3098,-17.45615 c 2.6335,-0.42398 5.2142,0.10166 7.73478,1.59375 4.4751,2.64938 8.72377,8.32017 12.81508,17.088 1.32932,2.82568 2.62688,5.94537 3.89745,9.36187 4.84115,13.00899 9.34239,30.4781 13.61044,52.13929 4.26886,21.66525 6.71221,39.5117 6.89502,53.71554 0.0487,3.71133 -0.0573,7.16563 -0.32381,10.36481 -0.81114,9.81557 -3.12192,16.84901 -6.94607,20.96228 -2.15146,2.31371 -4.76953,3.68321 -7.81477,4.06203 -8.51833,1.05968 -15.97948,-6.02722 -22.12456,-20.29053 -0.32705,-0.76585 -0.64977,-1.55026 -0.9683,-2.35322 0,0 0,0 0,0 -5.68299,-14.32185 -9.92321,-34.20423 -13.97056,-59.98016 -4.04931,-25.7885 -6.10577,-45.85602 -5.43841,-60.3909 0,0 0,0 0,0 0.0376,-0.81914 0.0839,-1.62071 0.13888,-2.40481 1.04658,-14.78335 5.14748,-22.68504 12.49483,-23.86795 z"
         id="path4183"
         inkscape:connector-curvature="0" />
      <path
         style="fill:#0044aa"
         d="m 309.00178,349.92887 c -4.35986,1.38161 -6.74889,7.87947 -6.9302,19.61426 -0.1649,11.54535 1.88699,28.62635 6.59109,50.48177 4.70242,21.84765 9.7716,37.78694 14.80945,47.64718 5.0637,9.80524 10.09997,13.56077 14.74852,11.36759 1.29072,-0.60896 2.37301,-1.58641 3.24558,-2.92041 0,0 0,0 0,0 2.29586,-3.50916 3.12197,-9.42595 2.61839,-17.73296 -0.69499,-11.70706 -3.90794,-27.49133 -8.91892,-48.67709 -5.01763,-21.21384 -9.17939,-36.67588 -13.41209,-46.72845 -3.02829,-7.27552 -6.02833,-11.58259 -9.14955,-12.88433 0,0 0,0 0,0 -1.18741,-0.49582 -2.38784,-0.5524 -3.60227,-0.16756 z m -2.83077,-17.19111 c 1.18424,-0.35667 2.35168,-0.50321 3.50215,-0.44022 0,0 0,0 0,0 5.74809,0.31471 10.97701,5.81415 16.04969,16.33808 6.14384,12.63317 11.6174,31.62655 17.82953,57.24021 6.2055,25.58639 10.08071,45.24265 10.31896,60.72153 0.20306,12.67324 -2.12771,21.5911 -7.38103,26.45901 0,0 0,0 0,0 -1.05063,0.97355 -2.21522,1.77898 -3.4926,2.40932 -7.65939,3.77964 -15.64421,-0.54923 -23.19926,-13.03428 -7.53645,-12.55778 -14.21559,-32.54457 -19.8393,-59.63122 -5.61987,-27.06816 -7.59892,-48.6285 -6.41306,-63.84872 1.21189,-15.43596 5.55215,-24.08353 12.62492,-26.21371 z"
         id="path4185"
         inkscape:connector-curvature="0" />
      <path
         style="fill:#0044aa"
         d="m 375.90157,453.16676 c 3.9932,-2.62001 7.93953,-5.318 11.84146,-8.08129 0.40441,-0.28628 0.80836,-0.57326 1.21186,-0.86092 0.12188,-0.0869 0.24372,-0.17394 0.36552,-0.261 -12.32915,-34.4489 -21.77072,-70.54743 -28.32472,-108.29559 0.0151,-0.0155 -0.35287,0.3611 -0.33774,0.34563 -0.37282,0.38136 -0.74525,0.76236 -1.118,1.1437 -3.92222,4.01392 -7.93867,8.12365 -11.86297,12.12159 -1.1475,-6.23077 -2.22497,-12.49848 -3.2324,-18.80312 3.70873,-3.61782 8.39157,-8.19402 12.10743,-11.82044 0.38077,-0.37159 0.76145,-0.74303 1.14232,-1.11458 -7.7e-4,7.5e-4 0.2701,-0.2635 0.26933,-0.26274 2.75389,-1.12083 5.50076,-2.25828 8.24076,-3.41174 6.3424,43.81242 16.70222,85.23594 31.07946,124.27055 4.3456,-3.25253 8.63546,-6.5822 12.8739,-9.98026 1.84764,4.8037 3.7644,9.56384 5.75028,14.2804 -6.91699,5.90795 -13.99047,11.62834 -21.24136,17.11963 -0.40534,0.30694 -0.81123,0.61317 -1.21768,0.91867 -3.92156,2.94781 -7.89562,5.82788 -11.92501,8.62648 -1.93435,-5.27969 -3.8085,-10.59135 -5.62244,-15.93497 z"
         id="path4187"
         inkscape:connector-curvature="0" />
      <path
         style="fill:#0044aa"
         d="m 414.85285,304.09562 c -4.05798,2.1554 -6.52459,8.33175 -6.90022,18.5952 -0.35528,10.04274 1.38419,24.47308 6.18647,41.75324 4.79019,17.23666 10.33655,29.03011 15.32631,35.42598 5.05901,6.40487 9.64875,7.55461 13.40927,4.03419 0.37164,-0.34791 0.71812,-0.724 1.0396,-1.12768 0,0 0,0 0,0 2.98412,-3.74808 3.76952,-9.75219 2.77113,-18.04287 -1.12942,-9.49013 -4.37624,-21.15964 -8.93006,-37.26075 -4.57013,-16.15882 -7.89359,-27.7465 -11.55716,-35.27826 -3.21145,-6.69533 -6.4883,-9.68651 -10.15132,-8.595 0,0 0,0 0,0 -0.39454,0.11753 -0.79258,0.28272 -1.19402,0.49595 z m -1.95831,-14.19988 c 0.40167,-0.19572 0.80013,-0.36715 1.19532,-0.51446 0,0 0,0 0,0 6.17774,-2.30278 11.39929,1.25901 16.21105,9.86711 5.24467,9.27947 9.48191,23.34756 14.93184,42.5689 5.43025,19.15195 9.26806,33.59058 10.20457,46.2154 0.86486,11.55255 -0.91365,20.45289 -6.17317,26.53014 0,0 0,0 0,0 -0.3366,0.38894 -0.68711,0.76541 -1.0516,1.12912 -6.00486,5.99191 -13.10099,5.70121 -20.69804,-1.94364 -7.50555,-7.63026 -15.16188,-22.29234 -21.14869,-44.02627 -5.99721,-21.77169 -7.55027,-40.52866 -6.07327,-54.21324 1.51382,-13.94853 5.99398,-22.3932 12.60199,-25.61306 z"
         id="path4189"
         inkscape:connector-curvature="0" />
      <path
         style="fill:#0044aa"
         d="m 473.74092,369.60969 c 3.79095,-3.91124 7.54694,-7.85733 11.27076,-11.83434 -10.67216,-22.89602 -17.9543,-48.55053 -21.84642,-76.96354 -4.29219,4.5993 -8.55397,9.24431 -12.79671,13.93707 -0.77636,-4.76398 -1.46483,-9.59721 -2.06542,-14.4997 4.36171,-4.50694 8.74629,-8.96667 13.16407,-13.38027 2.59927,-1.44834 5.19358,-2.90549 7.78309,-4.37084 2.91197,33.13117 10.41102,62.46888 22.49716,88.01313 3.68585,-4.01307 7.34123,-8.05469 10.96891,-12.12096 1.48298,3.05967 3.04198,6.05494 4.67698,8.98579 -9.26541,11.18118 -18.73588,22.19704 -28.46542,32.97535 -1.80407,-3.52125 -3.53307,-7.10181 -5.187,-10.74169 z"
         id="path4191"
         inkscape:connector-curvature="0" />
    </g>
    <g
       transform="matrix(1.0505266,0,0,0.97950519,-16.038054,117.21209)"
       style="font-style:normal;font-weight:normal;font-size:90px;line-height:125%;font-family:sans-serif;letter-spacing:0px;word-spacing:0px;opacity:0.59100001;fill:#5599ff;fill-opacity:1;stroke:none;stroke-width:1px;stroke-linecap:butt;stroke-linejoin:miter;stroke-opacity:1"
       id="flowRoot4294">
      <path
         style="fill:#5599ff"
         d="m -149.57259,382.49602 c 3.66907,2.78768 7.38532,5.52491 11.15433,8.19514 12.88339,-51.79184 18.43978,-106.3953 16.66916,-163.81038 -5.17934,3.04923 -10.31734,6.12199 -15.27352,9.08963 -0.4971,-8.86387 -1.21391,-17.81114 -2.15041,-26.8418 5.16013,-3.42297 10.47103,-6.88039 15.89648,-10.29778 3.22244,0.14956 6.44281,0.34715 9.65967,0.59258 3.03831,68.80682 -2.92477,134.15523 -17.88927,196.0452 3.83501,2.58293 7.72616,5.08883 11.67904,7.50113 -1.89624,8.28636 -3.91536,16.52594 -6.05739,24.71875 -10.4859,-7.1283 -20.42409,-15.04009 -29.94044,-23.40662 2.26978,-7.19139 4.3539,-14.45334 6.25235,-21.78585 z"
         id="path4303"
         inkscape:connector-curvature="0" />
      <path
         style="fill:#5599ff"
         d="m -60.623635,229.91432 c -0.261404,-0.0689 -0.522215,-0.10949 -0.782275,-0.12167 0,0 -1e-6,0 -1e-6,0 -4.341624,-0.20339 -8.248321,7.29228 -11.873947,22.26402 -3.905205,16.18733 -7.191068,39.56849 -11.792635,72.24926 -4.563072,32.40738 -7.916845,56.09023 -8.982492,73.188 -0.947142,15.77809 0.190245,24.98685 3.77928,27.47367 0,0 10e-7,0 10e-7,0 0.215358,0.14933 0.439155,0.27342 0.671327,0.37216 4.10429,1.74546 8.640552,-5.15216 13.304915,-20.67465 0.769009,-2.55164 1.541617,-5.33172 2.318443,-8.34194 0,0 10e-7,0 10e-7,0 3.95861,-15.33341 8.082026,-36.90343 12.285963,-64.16506 4.224947,-27.39788 6.811831,-49.37607 7.621924,-65.71788 0,0 0,0 0,0 0.158974,-3.19959 0.250395,-6.18674 0.274032,-8.96437 0.18714,-17.09919 -2.195064,-26.34055 -6.824536,-27.56154 z m 2.750086,-25.79546 c 4.737414,1.195 8.329631,6.18876 10.506988,14.83893 0,0 10e-7,1e-5 10e-7,1e-5 1.449007,5.75401 2.267789,13.07816 2.462388,22.01873 0.532697,22.31654 -2.933709,53.35446 -9.257341,93.56589 -6.295004,40.02939 -12.472392,70.39288 -19.314572,90.40488 -2.720281,7.96769 -5.479805,14.10774 -8.289701,18.44358 0,0 -10e-7,0 -10e-7,0 -4.223914,6.51863 -8.521698,8.86723 -12.634344,7.03717 -0.241631,-0.10752 -0.478452,-0.22766 -0.710421,-0.36035 0,0 -10e-7,0 -10e-7,0 -6.431307,-3.67855 -8.821357,-16.41163 -7.991867,-37.52015 0.9155,-22.20424 5.152714,-51.70172 10.444116,-90.915 5.351031,-39.65519 9.047817,-68.69467 14.607772,-89.51698 5.266743,-19.68694 11.665371,-29.31507 19.344872,-28.16414 0,0 1e-6,0 1e-6,0 0.276452,0.0414 0.553853,0.0972 0.83211,0.16743 z"
         id="path4305"
         inkscape:connector-curvature="0" />
      <path
         style="fill:#5599ff"
         d="m -4.8554531,249.28949 c -4.3552278,-1.85172 -9.6121069,4.59811 -15.1144549,19.6847 -5.401291,14.84984 -11.194805,38.72011 -16.430525,70.85094 -5.211083,31.97964 -7.388081,56.94652 -7.188848,73.36662 0.240716,16.52688 2.870128,24.99245 7.259295,25.34615 0.134001,0.0108 0.267584,0.014 0.40073,0.01 0,0 1e-6,0 1e-6,0 4.326275,-0.14265 7.915429,-8.01873 11.304272,-23.03327 3.732165,-16.47236 6.680927,-37.93357 12.029313,-69.44104 5.3724656,-31.64931 9.6601856,-52.80313 11.4664708,-69.72755 1.70494621,-15.59089 0.79716654,-24.58913 -3.3363132,-26.86631 0,0 -6e-7,-1e-5 -6e-7,-1e-5 -0.1271041,-0.07 -0.2570894,-0.13328 -0.3899401,-0.18976 z m 6.4383285,-24.08563 c 0.1399568,0.0633 0.2782534,0.13005 0.4148799,0.20011 7.2410179,3.71307 9.3366267,16.09902 7.4295208,36.61129 -1.9810562,21.84276 -7.7027211,48.01657 -14.2258784,85.88552 -6.4893357,37.67261 -9.8786927,64.40535 -15.0014827,85.45627 -4.768863,19.63403 -10.418462,30.27332 -17.863759,30.37662 -0.140575,0.002 -0.28157,-4e-5 -0.422972,-0.006 -7.525622,-0.3162 -12.435457,-11.54897 -13.651312,-33.31208 -1.164105,-21.64172 1.349292,-53.14931 7.720118,-92.79336 6.403044,-39.84454 13.774897,-69.71683 21.72945,-88.78831 8.050187,-19.27499 16.4215807,-27.00165 23.8714354,-23.63008 z"
         id="path4307"
         inkscape:connector-curvature="0" />
      <path
         style="fill:#5599ff"
         d="m 48.882379,275.08624 c -4.202614,-2.20486 -10.082372,2.65358 -16.573816,15.42927 -6.297778,12.42539 -13.485425,33.32143 -18.519767,61.39946 -5.0113496,27.94979 -5.5742678,50.15313 -4.146374,64.08226 1.49569,14.181 5.036334,20.74336 9.414137,20.16836 0.03607,-0.005 0.07207,-0.01 0.107988,-0.0156 4.499009,-0.70543 7.479037,-8.02393 10.072111,-21.20362 5.247926,-26.53738 2.327548,-19.64155 9.705383,-58.1277 5.740842,-29.94684 9.241026,-39.84591 12.323137,-57.86135 2.339145,-13.41746 1.991918,-21.44887 -2.279878,-23.81559 -0.03407,-0.0189 -0.06838,-0.0374 -0.102921,-0.0555 z m 8.418481,-20.21142 c 0.0351,0.0211 0.07006,0.0424 0.10489,0.0639 7.014518,4.32995 8.01003,15.61273 5.155136,33.06546 -3.394888,21.11469 -8.78557,36.779 -15.383382,70.34383 -7.621766,38.77397 -6.429573,44.49075 -11.872291,70.64874 -3.543324,17.07295 -8.057732,27.23951 -15.485143,28.87463 -0.03691,0.008 -0.07388,0.016 -0.110907,0.0237 C 12.441484,459.40151 6.115137,451.28064 2.8216622,432.56956 -0.36915149,414.1752 -0.43451962,385.64234 5.798131,350.24392 12.056835,314.69753 21.842362,288.20517 31.371702,272.29324 41.138569,256.0043 50.395321,250.72108 57.30086,254.8748 Z"
         id="path4309"
         inkscape:connector-curvature="0" />
      <path
         style="fill:#5599ff"
         d="m 57.637778,425.6629 c 3.523418,-0.52349 7.055835,-1.05083 10.599611,-1.57437 1.191942,-0.17572 2.385369,-0.35089 3.580374,-0.52526 -1.37318,-40.26749 6.970981,-78.99129 25.032483,-116.17139 -1.404795,-0.0426 -2.806759,-0.0737 -4.206211,-0.0932 -4.65124,-0.0629 -9.268929,0.001 -13.86276,0.19638 2.756318,-6.57064 5.766064,-13.10119 9.029237,-19.59165 4.736738,0.22784 9.488368,0.5885 14.261678,1.07629 1.40222,0.1434 2.8057,0.29782 4.21065,0.46299 2.74108,1.72408 5.48475,3.44671 8.23325,5.16369 -24.33705,40.49911 -35.683959,83.07106 -34.040732,127.71586 0.231891,-0.0325 0.46385,-0.065 0.695876,-0.0974 4.547462,-0.63705 9.115154,-1.25105 13.704791,-1.83757 0.202165,5.29066 0.612791,10.61484 1.231878,15.97254 -4.5638,1.00856 -9.116999,2.04833 -13.660451,3.11224 -4.328488,1.01325 -8.64793,2.04922 -12.962407,3.09142 -3.561883,0.8606 -7.120729,1.72526 -10.678808,2.58466 -0.605995,-6.52932 -0.995481,-13.0244 -1.168459,-19.48522 z"
         id="path4311"
         inkscape:connector-curvature="0" />
      <path
         style="fill:#5599ff"
         d="m 157.14063,332.0022 c -4.49491,-2.05255 -10.27997,-0.23101 -16.60154,6.38426 -6.11579,6.42022 -12.93606,17.8403 -17.1299,33.68018 -4.17009,15.75023 -3.76609,28.44114 -1.69994,36.25137 2.16019,7.99133 6.03363,11.41895 10.63147,10.93509 2.71101,-0.2853 4.97204,-1.77043 6.90775,-4.30752 1.4313,-1.87435 2.68488,-4.3161 3.86912,-7.31727 3.09024,-7.79008 4.93659,-16.60269 9.21127,-30.54497 4.2659,-13.91367 7.80292,-22.6834 9.19568,-30.69621 0.56873,-3.15268 0.704,-5.82011 0.3073,-8.03546 -0.53542,-2.99765 -2.05186,-5.14424 -4.69121,-6.34947 z m 7.37919,-10.7229 c 2.37921,1.28327 4.21493,2.93543 5.54606,4.90935 2.66055,3.94496 3.29559,9.11478 2.50119,15.53049 -1.20274,10.16288 -5.45105,20.97449 -10.60475,36.92766 -5.14222,15.9176 -7.89229,26.84625 -12.29636,36.46064 -2.7433,6.00307 -5.79592,10.52063 -9.75006,13.31713 -1.98212,1.40204 -4.18874,2.36531 -6.65326,2.82351 -7.25493,1.34884 -13.83728,-2.51525 -18.19871,-13.1506 -4.20001,-10.36565 -5.96082,-27.14608 -0.75296,-47.66011 5.23623,-20.62582 15.04857,-35.35466 24.50492,-43.40478 9.74984,-8.28719 18.66225,-9.55136 25.70393,-5.75329 z"
         id="path4313"
         inkscape:connector-curvature="0" />
      <path
         style="fill:#5599ff"
         d="m 217.03104,353.42907 c -4.97015,-1.20222 -10.49788,0.25599 -16.24993,4.97873 -5.61002,4.62282 -11.50338,12.59745 -15.57988,23.69693 -4.04862,11.02356 -4.33748,19.79526 -2.80306,25.30115 1.6086,5.59832 5.05283,8.11489 9.86033,7.98315 4.88622,-0.1339 9.02626,-2.80292 12.91703,-7.71746 3.99486,-5.02537 7.65368,-12.20277 11.88213,-21.98743 4.25798,-9.85299 6.80675,-17.06804 6.96839,-22.45838 0.2101,-5.30946 -1.9457,-8.57532 -6.99501,-9.79669 z m 5.39421,-7.85385 c 7.4107,2.07657 11.18159,6.2298 12.08336,12.55446 0.0406,0.28433 0.0755,0.57323 0.10458,0.8667 0.73987,6.90602 -1.74166,15.74546 -7.04548,27.48972 -5.27163,11.67301 -10.70082,20.39475 -16.77245,26.76506 -0.25645,0.26955 -0.51333,0.53395 -0.77065,0.79318 -5.70171,5.74513 -11.73169,9.10061 -18.82204,9.62362 -7.34308,0.54164 -13.11804,-2.30984 -16.64679,-9.71106 -0.011,-0.023 -0.0219,-0.046 -0.0328,-0.0691 -3.39819,-7.29865 -4.31918,-18.91777 0.64796,-33.21289 5.00263,-14.39723 13.55194,-24.56664 22.22607,-30.28963 0.0275,-0.0181 0.055,-0.0362 0.0825,-0.0542 8.84907,-5.79814 17.27262,-6.90601 24.94572,-4.75591 z"
         id="path4315"
         inkscape:connector-curvature="0" />
      <path
         style="fill:#5599ff"
         d="m 281.67494,359.53671 c -1.07372,0.0605 -2.13498,0.20945 -3.18688,0.44822 0,0 0,0 0,0 -2.03893,0.463 -4.04787,1.26463 -6.04081,2.41582 -1.95289,1.12719 -3.89553,2.59354 -5.82365,4.40587 -4.87793,4.60076 -9.62512,11.44018 -14.12383,20.69721 -4.47039,9.19873 -6.43472,16.14439 -6.18187,20.79008 0.11832,1.81528 0.57829,3.28489 1.38184,4.40391 0.82008,1.14161 2.00117,1.92464 3.56596,2.34711 0,0 0,0 0,0 0.80732,0.21822 1.71825,0.3408 2.73739,0.36682 4.91835,0.12561 10.10952,-2.07314 15.52706,-6.81351 5.42375,-4.73164 11.11701,-12.06399 15.84753,-21.67426 4.7393,-9.62807 6.18396,-16.78583 5.35089,-21.22387 -0.79794,-4.53067 -3.8714,-6.45523 -9.05363,-6.1634 z m 2.92002,-7.26475 c 7.93817,-0.53739 13.17969,1.51822 15.5131,7.20521 2.3368,5.55508 1.62282,14.60008 -4.29335,26.82231 -5.9183,12.22661 -14.1965,21.70158 -22.51213,27.88754 -8.32699,6.20261 -16.17746,8.80867 -23.58451,8.5084 -0.94285,-0.0382 -1.83009,-0.12017 -2.66415,-0.24563 0,0 0,0 0,0 -1.48725,-0.22367 -2.80863,-0.58595 -3.97672,-1.08748 -3.37149,-1.44795 -5.54269,-4.10313 -6.53371,-7.99442 -1.47378,-5.99541 -0.10945,-14.78567 5.27367,-26.14739 5.4277,-11.45579 12.26701,-19.90014 19.7344,-25.71352 4.86482,-3.78137 9.8105,-6.32812 14.80512,-7.78326 1.72692,-0.5032 3.46987,-0.87944 5.23725,-1.13482 0,0 0,0 0,0 0.99115,-0.14321 1.99093,-0.24856 3.00103,-0.31694 z"
         id="path4317"
         inkscape:connector-curvature="0" />
      <path
         style="fill:#5599ff"
         d="m 298.12564,415.13812 c 5.16492,0.2533 10.30409,0.53641 15.41586,0.84995 15.29486,-22.32621 24.577,-44.01397 27.84642,-65.06327 -5.85192,3.02864 -11.86113,5.78623 -18.02956,8.29111 0.80043,-3.1498 1.47527,-6.2891 2.02452,-9.4179 5.85237,-2.71369 11.5273,-5.70621 17.02779,-8.99138 3.06328,-1.11288 6.10468,-2.28439 9.12321,-3.50949 -0.64256,25.3828 -10.21884,51.81435 -28.72882,79.29466 2.83366,0.19568 5.65848,0.40094 8.47417,0.61591 2.22938,0.17081 4.45371,0.34842 6.67292,0.53279 -2.51327,3.89563 -5.19435,7.81382 -8.04322,11.75456 -2.15705,-0.3564 -4.31671,-0.70244 -6.47888,-1.03792 -10.58774,-1.6421 -21.23888,-3.03423 -31.94028,-4.15488 2.32144,-3.06409 4.5334,-6.1188 6.63587,-9.16414 z"
         id="path4319"
         inkscape:connector-curvature="0" />
      <path
         style="fill:#5599ff"
         d="m 402.5986,321.95625 c -2.38691,1.27442 -4.39616,3.55685 -6.15521,6.75327 -1.47775,2.68444 -2.77043,5.98875 -4.04145,9.96508 -5.47556,17.20688 -2.56631,11.88044 -10.1066,36.14666 -5.28861,17.01985 -9.41845,26.41677 -11.79367,36.23399 -0.90971,3.84662 -1.26385,6.92442 -0.9227,9.23708 0.40551,2.75221 1.80294,4.38288 4.31496,4.74289 2.30981,0.33103 4.96867,-0.49504 7.9447,-2.59942 2.97592,-2.1049 6.27395,-5.50118 9.67435,-10.18331 6.73901,-9.25863 14.25885,-24.12821 18.89646,-42.76928 4.62902,-18.60648 4.21992,-32.23943 2.23866,-39.7592 -1.00494,-3.90547 -2.47084,-6.45953 -4.17823,-7.71154 -1.71333,-1.25445 -3.67726,-1.22764 -5.87127,-0.0562 z m -1.11535,-12.62905 c 2.00278,-1.27247 3.91372,-2.02419 5.75271,-2.2002 0,0 0,0 0,0 4.38408,-0.41953 8.4744,2.51512 11.45423,9.41787 4.12311,9.42323 6.13292,26.99062 0.55285,51.17026 -5.59816,24.25804 -16.24099,43.87614 -26.5864,56.17419 -7.37368,8.77456 -14.44575,13.73857 -20.41635,15.22229 0,0 -1e-5,0 -1e-5,0 -2.4889,0.61854 -4.79798,0.64346 -6.93566,0.13367 -2.30666,-0.55008 -4.0635,-1.63757 -5.30131,-3.19611 -2.69322,-3.39091 -2.90302,-8.90381 -1.38979,-16.29819 2.49072,-11.89688 7.94293,-24.09034 14.32371,-43.28342 7.35511,-22.12378 7.91227,-28.21673 13.26394,-43.40077 2.72765,-7.72328 5.61316,-13.87816 9.42482,-18.47838 1.75524,-2.11842 3.69661,-3.88845 5.85726,-5.26121 z"
         id="path4321"
         inkscape:connector-curvature="0" />
      <path
         style="fill:#5599ff"
         d="m 415.51855,427.2195 c 4.75535,0.76969 9.48979,1.57031 14.20366,2.40079 19.20032,-46.19469 26.98268,-90.26948 23.34708,-132.22437 -4.45775,5.60942 -9.06759,10.94196 -13.82989,16.01315 -0.21423,-6.23207 -0.71298,-12.41269 -1.49623,-18.54185 4.36075,-5.58261 8.55845,-11.43717 12.59467,-17.57876 2.54521,-1.99912 5.07478,-4.01798 7.58935,-6.05529 9.21477,50.34759 2.66247,103.6575 -19.65688,159.92972 4.68909,0.86625 9.35782,1.76168 14.00656,2.6852 -2.86248,7.79931 -5.99449,15.65009 -9.39603,23.55231 -12.12063,-3.91642 -24.33749,-7.58844 -36.65114,-10.98138 3.34011,-6.44404 6.43639,-12.84388 9.28885,-19.19952 z"
         id="path4323"
         inkscape:connector-curvature="0" />
      <path
         style="fill:#5599ff"
         d="m 503.73495,254.09703 c -3.8507,3.0558 -5.2657,12.75206 -6.08023,28.86054 -0.71375,14.32409 -1.04201,40.146 -4.18249,68.71546 -2.85164,25.94175 -8.80661,57.7391 -10.48618,69.74212 -2.21662,16.14349 -1.95201,25.27807 2.47523,26.44396 4.26008,1.12187 10.39884,-6.45771 16.84462,-23.66862 6.32806,-16.85972 13.2157,-44.07734 15.95742,-78.17423 2.73928,-34.06667 0.10327,-59.62468 -3.18274,-74.21433 -3.39976,-15.28511 -7.68134,-20.61278 -11.34563,-17.7049 z m -4.29418,-23.91997 c 5.67393,-5.47169 12.72308,-0.21445 18.89512,19.23171 5.94536,18.58052 10.91917,51.2168 7.77958,94.80679 -3.14591,43.67785 -13.04097,78.95062 -22.96694,101.18895 -10.11965,22.69503 -19.87501,31.64941 -26.73942,28.9853 -7.16404,-2.78041 -7.89408,-15.53864 -4.9831,-36.39425 1.76279,-12.4258 10.62882,-57.57196 13.87724,-84.47798 4.07312,-33.73685 4.24706,-64.16009 5.16748,-83.1248 1.01805,-20.81315 2.97524,-34.43461 8.97004,-40.21572 z"
         id="path4325"
         inkscape:connector-curvature="0" />
    </g>
    <g
       transform="translate(8.4852814,-14.142136)"
       style="font-style:normal;font-weight:normal;font-size:90px;line-height:125%;font-family:sans-serif;letter-spacing:0px;word-spacing:0px;opacity:0.59100001;fill:#003380;fill-opacity:1;stroke:none;stroke-width:1px;stroke-linecap:butt;stroke-linejoin:miter;stroke-opacity:1"
       id="flowRoot4329">
      <path
         style="fill:#003380"
         d="m -170.30962,561.67146 c -3.93206,-2.62535 -7.4736,0.34885 -10.0337,9.82554 -2.46336,9.17104 -4.08839,25.41742 -2.74843,48.04868 1.34295,22.68173 5.04556,41.14087 9.3129,53.48264 4.34579,12.45214 9.3202,19.00281 14.0887,19.74437 4.89399,0.76106 6.94917,-4.61577 6.87725,-15.13647 -0.0619,-11.35362 -2.22938,-25.77032 -4.45056,-47.32327 -2.24368,-21.77124 -2.94782,-35.57922 -4.82301,-47.71927 -1.7061,-11.28402 -4.15979,-18.20921 -8.22315,-20.92222 z m 1.77896,-15.9003 c 5.29768,3.84339 8.90144,11.10886 11.47177,21.8406 0.47524,1.98453 0.91607,4.08538 1.33125,6.31015 0.0473,0.25313 0.0942,0.50782 0.14079,0.7641 2.86824,15.53925 3.9439,32.75985 6.94496,58.4339 2.97382,25.44111 5.93396,43.24878 5.56841,57.62658 -0.006,0.23717 -0.0127,0.47241 -0.0205,0.70571 -0.0681,2.05063 -0.21138,3.94954 -0.43785,5.69677 -1.22027,9.41438 -4.94948,14.45393 -11.61437,13.8588 -7.95973,-0.71075 -16.07162,-9.39248 -22.8993,-26.2339 -6.72595,-16.70029 -11.81687,-40.70279 -13.10856,-69.31482 -1.28712,-28.51093 1.75427,-48.71742 6.09298,-59.95982 4.49044,-11.60815 10.26937,-14.27034 16.53037,-9.72807 z"
         id="path4340"
         inkscape:connector-curvature="0" />
      <path
         style="fill:#003380"
         d="m -118.74632,691.29652 c 3.44607,-0.10884 6.89507,-0.3019 10.34308,-0.57813 0.46848,-0.0375 0.93699,-0.0765 1.40553,-0.117 1.22182,-0.10589 2.44341,-0.22269 3.66469,-0.35017 -12.13332,-33.44011 -17.52383,-66.34803 -16.17151,-98.72374 -1.17825,0.0788 -2.35234,0.15112 -3.52175,0.21715 -0.44844,0.0253 -0.89617,0.0497 -1.34313,0.0732 -3.71698,0.19667 -7.39619,0.33844 -11.01589,0.43633 0.14701,-5.52666 0.47089,-11.02422 0.97165,-16.49268 3.67097,0.10059 7.40062,0.15136 11.16929,0.13807 0.45297,-0.002 0.90665,-0.004 1.36099,-0.008 1.15401,-0.009 2.31239,-0.0241 3.4746,-0.0458 2.94616,1.09479 5.92095,2.11341 8.92055,3.05371 -3.79083,36.43113 1.37331,73.15477 15.492417,110.17092 5.130238,-0.75986 10.250383,-1.69893 15.353208,-2.80064 1.784301,4.3836 3.710023,8.7614 5.777166,13.13339 -9.298492,2.71729 -18.732582,4.92399 -28.264621,6.49527 -0.47128,0.0777 -0.9428,0.15382 -1.41453,0.22841 -3.4729,0.54925 -6.95813,1.0139 -10.45144,1.39186 -2.06784,-5.43137 -3.9846,-10.83891 -5.7503,-16.22262 z"
         id="path4342"
         inkscape:connector-curvature="0" />
      <path
         style="fill:#003380"
         d="m -58.186616,680.96501 c 5.026672,-1.51505 10.022059,-3.16922 14.986699,-4.94038 -10.650556,-24.29062 -15.976051,-49.62559 -15.976485,-76.00492 -5.646992,1.77249 -11.289179,3.4187 -16.902141,4.92417 -0.07034,-4.50652 0.01141,-9.03268 0.245242,-13.57848 5.644605,-1.26255 11.313646,-2.67267 16.980179,-4.21428 0.09432,0.003 0.18864,0.005 0.282962,0.007 1.905191,0.0479 3.810079,0.07 5.714475,0.0679 1.14487,-10e-4 2.289555,-0.0113 3.434015,-0.0298 -1.737832,30.04415 3.329711,58.53817 15.202628,85.48204 4.916987,-1.9011 9.795401,-3.89867 14.642717,-5.97202 1.419195,3.21567 2.941159,6.40292 4.565892,9.56176 -5.787847,2.82249 -11.61928,5.55308 -17.510585,8.15596 -1.786286,0.78929 -3.577986,1.56669 -5.375273,2.33101 -4.906824,2.08503 -9.853352,4.07065 -14.84265,5.93294 -1.944842,-3.89034 -3.760734,-7.79808 -5.447675,-11.72321 z"
         id="path4344"
         inkscape:connector-curvature="0" />
      <path
         style="fill:#003380"
         d="m 4.7429178,588.56858 c -4.75377871,1.00574 -8.4645423,4.57747 -10.6167134,10.94317 -2.0901752,6.22286 -2.6511349,15.39019 -0.3075266,26.51763 2.3350283,11.08671 6.43024288,18.7404 10.6790745,22.87747 4.3346389,4.1578 8.8879577,4.89322 13.3202097,2.67162 0.320321,-0.16055 0.629331,-0.33067 0.927091,-0.51017 0,0 0,0 0,0 3.885423,-2.33979 5.817216,-6.21794 6.244653,-11.56901 0.488232,-5.93744 -0.794312,-13.28529 -2.832061,-23.26781 -2.045936,-10.02263 -3.727816,-17.21616 -6.445992,-21.97574 -2.441442,-4.36119 -5.633841,-6.40485 -9.9570337,-5.85913 0,0 -7e-7,0 -7e-7,0 -0.3309805,0.042 -0.6682144,0.0993 -1.0117008,0.17197 z m 0.2209195,-8.8826 c 0.3406825,-0.0601 0.6773526,-0.11253 1.0100141,-0.15743 0,0 1.1e-6,0 1.1e-6,0 5.4926655,-0.74167 9.8649505,0.57601 13.3459635,3.70157 1.074638,0.96481 2.066377,2.10232 2.988688,3.40874 4.192527,5.85306 6.544023,14.46048 8.927748,26.2789 2.375637,11.77833 3.581695,20.82675 2.253704,28.72099 -0.290974,1.74136 -0.702546,3.3836 -1.24771,4.93113 -1.763441,5.00159 -4.953784,9.06619 -9.883013,12.00933 0,0 -1e-6,0 -1e-6,0 -0.298932,0.1785 -0.604239,0.35281 -0.915946,0.52283 -6.996084,3.81588 -14.1397697,3.68828 -21.0177253,-1.33883 -6.7482886,-4.98989 -12.8835697,-14.66705 -15.8880307,-28.84548 -3.014203,-14.2244 -1.463204,-26.22587 2.485876,-34.63129 4.0414601,-8.58186 10.2956076,-13.25229 17.9404313,-14.60046 z"
         id="path4346"
         inkscape:connector-curvature="0" />
      <path
         style="fill:#003380"
         d="m 64.351637,574.27421 c -4.729192,1.17453 -8.374816,4.32513 -10.581697,9.57178 -2.149847,5.14187 -2.877688,12.4686 -1.159711,21.21828 1.712193,8.72022 5.021124,14.57627 8.755098,17.61483 3.805644,3.04097 8.073675,3.3214 12.592174,1.23925 4.579461,-2.11025 7.184369,-5.5235 8.172584,-10.23324 0.144622,-0.68021 0.256734,-1.38783 0.337978,-2.12395 0,0 0,0 0,0 0.492933,-4.46067 -0.150032,-9.79288 -1.446558,-16.53744 -1.300438,-6.7649 -2.658774,-11.86165 -4.704731,-15.44473 0,0 0,0 0,0 -0.33748,-0.59107 -0.691899,-1.13674 -1.065095,-1.63671 -2.573377,-3.52176 -6.106992,-4.85846 -10.900042,-3.66807 z m 0.165558,-6.96307 c 4.522242,-0.99298 8.362085,-0.81695 11.57212,0.37988 2.20417,0.8219 4.121784,2.12661 5.799836,3.88315 4.197005,4.32707 6.594679,11.06031 8.390133,20.39896 1.793487,9.32841 2.101002,16.70658 -0.0239,23.14198 -0.846985,2.57558 -2.064438,4.90671 -3.699774,7.0116 -2.38054,3.06476 -5.665083,5.66575 -9.931433,7.75462 -7.167262,3.50919 -13.893016,3.92732 -19.971274,0.42397 -5.969533,-3.49126 -10.975784,-10.75483 -13.18577,-21.88748 -2.216181,-11.16385 -0.567209,-20.8715 3.363024,-27.95485 4.011146,-7.21342 10.095708,-11.48496 17.687036,-13.15183 z"
         id="path4348"
         inkscape:connector-curvature="0" />
      <path
         style="fill:#003380"
         d="m 124.42684,560.94018 c -4.82044,0.88953 -8.4053,3.37548 -10.58031,7.5102 -2.12655,4.06798 -2.84927,9.84237 -1.46789,16.87524 1.37827,7.01702 4.17438,11.80716 7.65299,14.41527 3.53448,2.60026 7.75554,3.04637 12.57122,1.63811 4.86278,-1.42203 7.96245,-3.99089 9.46773,-7.79575 1.5409,-3.85935 1.46308,-8.90065 0.0921,-15.42224 -1.37317,-6.53191 -3.33477,-11.2196 -6.23725,-14.11185 -2.8525,-2.89837 -6.63275,-4.0069 -11.49856,-3.10898 z m -0.26763,-5.45139 c 7.66177,-1.28674 13.67759,0.0709 18.29367,3.66511 4.67964,3.59477 7.74214,9.29558 9.4423,17.1625 1.70092,7.87047 1.21234,14.12569 -1.72469,19.21009 -2.89373,5.02517 -8.04659,8.58879 -15.70644,10.93035 -7.64732,2.33774 -14.32473,2.35358 -19.99914,-0.6403 -5.59165,-2.9946 -9.8582,-8.86005 -11.58409,-17.76122 -1.7279,-8.91149 -0.0797,-16.5689 3.77838,-22.18334 3.9233,-5.69658 9.84718,-9.09795 17.50001,-10.38319 z"
         id="path4350"
         inkscape:connector-curvature="0" />
      <path
         style="fill:#003380"
         d="m 175.21251,590.99926 c 0.22492,-0.0297 0.44989,-0.059 0.67492,-0.0881 5.08634,-0.65216 10.1911,-1.15543 15.30546,-1.5092 -2.633,-11.55493 -5.38289,-23.10205 -8.24967,-34.64136 -4.85466,1.02379 -9.73459,2.12585 -14.63418,3.32037 -0.66668,0.16328 -1.33352,0.32822 -2.00053,0.49483 -0.36937,-1.88274 -0.72805,-3.76689 -1.07604,-5.65244 0.65546,-0.16212 1.31044,-0.32276 1.96496,-0.48194 4.7822,-1.16125 9.53486,-2.24464 14.25406,-3.26533 3.13907,-0.24385 6.2801,-0.46191 9.42265,-0.65388 3.89625,13.43857 7.24226,26.90119 10.03803,40.38787 5.3495,-0.17157 10.70338,-0.17972 16.05161,-0.0237 0.30389,1.75998 0.58805,3.51994 0.85249,5.27988 -13.54132,-0.48771 -27.1242,0.1536 -40.56201,1.91362 -0.22197,0.0291 -0.44389,0.0586 -0.66576,0.0883 -0.46682,-1.72195 -0.92549,-3.44491 -1.37599,-5.16888 z"
         id="path4352"
         inkscape:connector-curvature="0" />
      <path
         style="fill:#003380"
         d="m 238.46709,590.38445 c 5.30192,0.58011 10.58149,1.31181 15.83108,2.18696 -1.23813,-12.63105 -4.3354,-25.45952 -9.2918,-38.48544 -5.35146,0.51437 -10.76262,1.08167 -16.2092,1.7183 -0.69375,-1.99199 -1.42514,-3.9862 -2.19418,-5.98262 5.29572,-0.73421 10.56119,-1.41874 15.76236,-2.06696 3.13667,0.10052 6.27237,0.22846 9.40666,0.38409 0,0 0.0255,10e-4 0.0255,10e-4 6.78971,15.76555 10.79326,31.1585 12.01064,46.17883 0,0 0.0551,0.0111 0.0551,0.0111 5.18901,1.04589 10.34161,2.22187 15.45699,3.51844 0.11122,2.01318 0.16993,4.01687 0.17614,6.01107 -5.06368,-1.38322 -10.16472,-2.63904 -15.30239,-3.75706 1e-5,0 -0.0802,-0.0174 -0.0802,-0.0174 -8.27375,-1.79683 -16.63389,-3.22366 -25.04585,-4.24191 -0.16736,-1.81748 -0.36765,-3.63703 -0.60088,-5.45864 z"
         id="path4354"
         inkscape:connector-curvature="0" />
      <path
         style="fill:#003380"
         d="m 299.83534,603.73677 c 5.03113,1.6107 10.02366,3.32999 14.97677,5.14831 -0.005,-15.1305 -2.89517,-31.02766 -8.67122,-47.69145 -5.16064,0.0822 -10.41452,0.17115 -15.64755,0.27809 -0.86439,-2.49763 -1.7984,-5.0112 -2.80202,-7.5407 4.90107,-0.28605 10.49461,-0.60576 15.33188,-0.8863 3.11422,0.43795 6.225,0.9003 9.33206,1.38656 7.836,20.43857 11.64229,39.72751 11.41888,57.86683 4.90501,1.93484 9.7701,3.9629 14.59443,6.07462 -0.0779,2.4568 -0.22533,4.89153 -0.4423,7.30418 -12.43669,-5.83247 -25.14951,-11.07555 -38.12494,-15.54326 0.0712,-2.11841 0.0825,-4.2507 0.034,-6.39688 z"
         id="path4356"
         inkscape:connector-curvature="0" />
      <path
         style="fill:#003380"
         d="m 368.01144,572.79687 c -2.29338,-0.62855 -4.131,-0.47129 -5.52065,0.41312 -1.4535,0.92371 -2.41626,2.63595 -2.96217,5.09607 -1.07074,4.89693 -0.4222,12.3515 0.79451,22.78665 1.20987,10.37653 2.32125,18.0776 4.44935,24.22611 1.08413,3.07957 2.39678,5.66623 4.01512,7.7922 1.54833,2.0332 3.37506,3.63853 5.50616,4.7977 0,0 0.0478,0.0259 0.0478,0.0259 4.33342,2.33815 7.86815,1.6797 10.30879,-2.46415 2.43577,-4.10547 3.83445,-11.83954 2.96828,-23.18013 -0.87109,-11.40511 -3.60455,-20.88449 -7.09229,-27.50781 -3.49412,-6.70612 -7.78086,-10.66827 -12.46345,-11.97145 -0.0171,-0.005 -0.0343,-0.01 -0.0514,-0.0142 z m -2.50719,-9.15709 c 0,0 0.0519,0.0124 0.0519,0.0124 7.57009,1.81967 14.49966,7.21367 20.15275,16.43778 5.623,9.11003 9.65431,21.59707 10.57645,36.0568 0.91727,14.38323 -1.67125,23.94453 -5.90833,28.73357 -4.27704,4.84983 -10.03698,4.81177 -16.90737,0.85204 -10e-6,0 -0.0473,-0.0273 -0.0473,-0.0273 -1.98679,-1.14934 -3.81117,-2.47142 -5.47777,-3.95554 0,0 0,0 0,0 -4.15521,-3.70068 -7.31166,-8.37885 -9.77237,-14.10102 -3.46384,-8.14334 -5.24547,-17.62693 -6.83929,-29.91168 -1.60151,-12.34397 -2.1983,-21.31401 -0.10538,-27.38885 1.47862,-4.26912 4.20278,-6.77019 8.45167,-7.2098 0,0 0,0 0,0 1.70269,-0.17618 3.64589,-0.0174 5.82506,0.50158 z"
         id="path4358"
         inkscape:connector-curvature="0" />
      <path
         style="fill:#003380"
         d="m 411.73977,657.64813 c 4.43181,2.77314 8.83176,5.59583 13.20119,8.46422 2.86971,-22.45337 2.40522,-46.58498 -1.39348,-72.39481 -4.99295,-0.31108 -9.98266,-0.6546 -14.98728,-1.02785 -0.61993,-3.93217 -1.32684,-7.90576 -2.12072,-11.92076 4.9776,0.12526 9.94435,0.21948 14.91726,0.27985 2.98707,0.97643 5.96861,1.97017 8.94458,2.9807 5.34386,31.443 6.1941,60.55888 2.55074,87.34765 4.33295,2.92239 8.6362,5.88817 12.91111,8.89349 -0.53573,3.59318 -1.14537,7.14636 -1.82893,10.65956 -10.96285,-8.22255 -22.12416,-16.17374 -33.51127,-23.78208 0.51319,-3.13113 0.95212,-6.29779 1.3168,-9.49997 z"
         id="path4360"
         inkscape:connector-curvature="0" />
      <path
         style="fill:#003380"
         d="m 482.31881,614.03504 c -4.46746,-1.97368 -7.44231,0.76612 -9.25329,7.66114 -1.83528,7.04762 -2.36665,17.81498 -2.92943,32.9202 -0.55908,15.006 -0.84883,26.03267 0.13846,34.74113 1.00002,8.50888 3.21969,14.27195 7.13842,17.32953 3.89619,3.03999 7.57433,1.83572 10.75746,-4.17254 3.16159,-5.93546 5.92666,-16.86655 7.01177,-32.75403 1.09163,-15.9829 -0.0418,-29.24657 -2.40944,-38.57846 -2.36709,-9.47544 -6.00632,-15.18205 -10.45395,-17.14697 z m -1.02996,-13.05805 c 7.24142,2.90698 13.30408,10.74947 17.40906,23.68886 4.09011,12.76817 6.01462,30.03806 4.45297,50.11148 -1.55263,19.95744 -5.8313,33.42308 -10.93416,40.44446 -5.1586,7.11596 -10.97996,7.6078 -17.11107,2.53139 -6.20103,-5.13431 -9.849,-13.38029 -11.75276,-24.7123 -1.90051,-11.53734 -1.909,-25.23987 -1.43029,-43.17368 0.48193,-18.05446 1.22741,-31.15728 4.2208,-39.89936 2.94438,-8.56718 7.83325,-11.92624 15.14545,-8.99085 z"
         id="path4362"
         inkscape:connector-curvature="0" />
    </g>
    <g
       transform="matrix(0.98953524,0,0,1,-40.941832,-154.14928)"
       style="font-style:normal;font-weight:normal;font-size:90px;line-height:125%;font-family:sans-serif;letter-spacing:0px;word-spacing:0px;opacity:0.59100001;fill:#80b3ff;fill-opacity:1;stroke:none;stroke-width:1px;stroke-linecap:butt;stroke-linejoin:miter;stroke-opacity:1"
       id="flowRoot4366">
      <path
         style="fill:#80b3ff"
         d="m -101.5542,861.4902 c -4.83145,0.0806 -7.40636,1.70703 -8.42477,4.53751 -1.07559,3.03262 -0.33617,6.5867 -0.49166,11.66701 -0.15422,5.03852 -1.10833,8.04812 -0.59008,11.29928 0.50969,2.97277 2.40357,5.58186 6.62383,7.29584 2.90133,1.17831 5.79482,1.44844 8.546333,0.68029 1.222002,-0.34044 2.406224,-0.88421 3.523751,-1.6338 3.603377,-2.40453 6.695066,-7.09116 7.430791,-13.69602 0.739902,-6.64237 -1.255461,-11.9357 -4.363638,-15.2699 -0.964371,-1.04942 -2.049342,-1.92769 -3.226244,-2.63519 -2.645908,-1.58987 -5.721932,-2.30017 -9.028313,-2.24502 z m -2.64011,-5.1612 c 3.14073,-0.14004 6.16659,0.0477 9.020497,0.61098 4.386274,0.8659 8.320577,2.61416 11.51071,5.32767 5.222225,4.39736 8.294561,11.34099 7.224315,20.11041 -1.063494,8.71411 -5.741392,15.05881 -11.64603,18.16185 -3.606438,1.89979 -7.603135,2.57966 -11.707073,2.07652 -2.671179,-0.32716 -5.359759,-1.15047 -8.035679,-2.42686 -6.89025,-3.2866 -9.92553,-7.62549 -10.82554,-11.57354 -0.92511,-4.22897 0.3455,-7.48999 0.19783,-12.72358 -0.15118,-5.35788 -1.57395,-9.49358 0.14026,-13.30632 1.63381,-3.61132 5.98289,-5.89428 14.12071,-6.25713 z"
         id="path4377"
         inkscape:connector-curvature="0" />
      <path
         style="fill:#80b3ff"
         d="m -41.716062,856.80875 c -4.83122,0.7022 -8.094394,3.28758 -10.210654,7.66823 -2.141839,4.46335 -2.967374,10.4109 -4.074581,18.63945 -1.101059,8.18285 -1.870131,14.11119 -0.967414,18.54964 0.916069,4.29359 3.451738,6.86133 8.098274,7.25493 4.632124,0.39237 8.978563,-1.63269 12.650533,-6.18413 3.660848,-4.51958 6.708659,-11.64101 7.972234,-20.81645 1.2683,-9.20976 0.130447,-15.98751 -2.335396,-20.06814 -2.470643,-4.17201 -6.32617,-5.74218 -11.132996,-5.04353 z m -0.868624,-6.75239 c 7.822773,-1.30066 14.228668,0.32027 18.584298,5.55282 4.324818,5.12571 6.43732,13.69143 4.834903,25.41177 -1.59632,11.67574 -6.152946,20.99777 -12.043199,27.02556 -5.927503,6.07626 -12.921281,8.59236 -20.393193,7.69078 -7.537054,-0.90943 -11.791227,-4.71211 -13.548313,-10.34032 -0.260602,-0.85703 -0.465108,-1.75245 -0.619377,-2.68715 0,0 0,0 0,0 -0.87834,-5.33793 -0.095,-11.66805 0.961321,-19.74474 1.062813,-8.12636 1.937284,-14.48134 4.284789,-19.78261 0,0 0,0 0,0 0.409899,-0.92376 0.860949,-1.80529 1.359439,-2.64657 3.339602,-5.6199 8.660151,-9.16285 16.579332,-10.47954 z"
         id="path4379"
         inkscape:connector-curvature="0" />
      <path
         style="fill:#80b3ff"
         d="m -7.5622639,907.42355 c 2.8833994,-0.16721 5.7683679,-0.36638 8.6532585,-0.5939 2.0953996,-0.16716 4.1903961,-0.35006 6.2849333,-0.54797 5.7025021,-20.37005 8.2443611,-40.16239 7.6255761,-59.37703 -2.078552,1.08508 -4.164972,2.14328 -6.2575199,3.17415 -3.3172619,1.63134 -6.6512321,3.19744 -9.9909145,4.69544 -0.028212,-2.9634 -0.1368966,-5.91521 -0.3260539,-8.85542 3.3037515,-1.58644 6.5959972,-3.24126 9.8652241,-4.96254 2.0323082,-1.07035 4.0568602,-2.16698 6.0718332,-3.28947 3.033381,-0.97676 6.053947,-1.99332 9.060514,-3.04973 2.038843,22.67326 -0.29438,46.24593 -6.999669,70.71801 4.975188,-0.56962 9.947325,-1.21809 14.915659,-1.93557 -0.879748,3.32591 -1.835655,6.67038 -2.86772,10.0334 -10.023069,1.06537 -20.064559,1.87684 -30.1229314,2.34177 -2.8748022,0.13224 -5.7518628,0.23639 -8.6294536,0.30838 0.9744862,-2.89664 1.8802408,-5.78315 2.7172641,-8.65952 z"
         id="path4381"
         inkscape:connector-curvature="0" />
      <path
         style="fill:#80b3ff"
         d="m 51.372097,900.15269 c 0.751415,-0.13421 1.502719,-0.26971 2.25391,-0.40646 4.204898,-0.76983 8.397713,-1.57321 12.579258,-2.40229 6.136088,-25.52058 8.240654,-49.72753 6.313698,-72.62084 -3.886889,3.0432 -7.835932,5.98639 -11.853318,8.82666 -1.133467,0.80011 -2.271282,1.5914 -3.413085,2.37384 -0.150576,-3.54244 -0.398362,-7.05678 -0.743361,-10.54302 1.107409,-0.81654 2.209918,-1.64204 3.307146,-2.47646 3.860516,-2.9371 7.647918,-5.981 11.36938,-9.12902 2.819257,-1.48378 5.620631,-3.00117 8.406322,-4.54736 4.16273,26.84292 2.681915,55.61056 -4.442443,86.30291 1.180619,-0.24424 2.360378,-0.4901 3.539298,-0.7374 3.722844,-0.78212 7.436041,-1.57971 11.140535,-2.38929 -0.901459,4.17038 -1.900596,8.37599 -2.99741,12.61683 -3.718968,0.63391 -7.441417,1.25615 -11.167873,1.86393 -8.316113,1.35575 -16.652933,2.64459 -25.011785,3.80917 -0.74759,0.10396 -1.495289,0.20688 -2.243097,0.30873 1.071142,-3.64104 2.05875,-7.25768 2.962825,-10.84993 z"
         id="path4383"
         inkscape:connector-curvature="0" />
      <path
         style="fill:#80b3ff"
         d="m 128.55657,790.16156 c -4.21315,2.48954 -6.69289,8.09069 -8.10111,16.67995 -0.19912,1.22508 -0.37662,2.5133 -0.53582,3.86761 0,0 0,0 0,0 -0.98053,8.33965 -1.19922,18.28148 -1.69749,31.76183 -0.49748,13.45923 -1.00217,23.43422 -0.46735,31.19617 0,0 0,0 0,0 0.0865,1.25853 0.19993,2.43391 0.3435,3.52685 1.03698,7.55056 3.58096,11.09672 8.17682,10.09474 4.55834,-0.9938 8.79465,-6.0637 12.11607,-15.36371 3.31056,-9.23436 5.77328,-22.8975 5.97812,-39.74325 0.2051,-16.86719 -1.94288,-28.85488 -4.86124,-35.60332 -2.95315,-6.94533 -6.77575,-8.88431 -10.9515,-6.41687 z m -2.03569,-11.74908 c 6.64087,-4.27635 12.88737,-2.70194 17.87771,5.89974 4.92009,8.37995 8.37901,23.47852 8.24883,44.77101 -0.13007,21.27414 -3.79432,38.88909 -9.20603,51.26662 -5.44395,12.4711 -12.38715,19.17977 -19.79599,20.47919 -4.40378,0.77238 -7.73915,-0.5409 -10.08995,-3.71035 -1.62606,-2.19014 -2.78076,-5.25611 -3.55977,-9.16199 -1.92138,-9.89802 -1.26725,-23.44515 -0.40809,-42.06069 0.85899,-18.61189 1.42777,-32.29738 3.8574,-43.85366 0.9782,-4.63729 2.20821,-8.68013 3.79211,-12.16681 2.28876,-5.03729 5.32822,-8.9159 9.28378,-11.46306 z"
         id="path4385"
         inkscape:connector-curvature="0" />
      <path
         style="fill:#80b3ff"
         d="m 165.99601,875.45381 c 0.86969,-0.17585 1.73909,-0.35026 2.6082,-0.52315 3.83511,-0.76473 7.66568,-1.50843 11.49149,-2.22607 2.58924,-35.47222 2.44814,-70.16183 -0.42328,-104.06882 -3.64913,3.04691 -7.24744,6.17285 -10.79229,9.32917 -1.18747,1.05467 -2.37098,2.11488 -3.55035,3.17862 -0.5055,-5.25605 -1.1039,-10.48112 -1.79518,-15.67522 1.18143,-1.12695 2.36966,-2.25035 3.56499,-3.36836 3.5486,-3.32143 7.17365,-6.6035 10.88016,-9.79941 2.93922,-1.21492 5.90856,-2.35505 8.90752,-3.41029 3.49586,39.99716 4.07243,80.75039 1.72971,122.25969 1.79268,-0.31739 3.58427,-0.62822 5.37476,-0.93195 2.88415,-0.49113 5.77318,-0.96823 8.66623,-1.4304 -0.15486,5.36599 -0.33428,10.7371 -0.53826,16.11331 -2.99559,0.45664 -5.98941,0.92231 -8.98126,1.39617 -8.74942,1.3844 -17.49842,2.84808 -26.2461,4.36263 0,0 -1e-5,0 -1e-5,0 -0.8946,0.1548 -1.7892,0.31024 -2.68381,0.46629 0.67388,-5.24982 1.26971,-10.47389 1.78748,-15.67221 z"
         id="path4387"
         inkscape:connector-curvature="0" />
      <path
         style="fill:#80b3ff"
         d="m 240.3567,752.32113 c -4.78894,0.0498 -8.60719,5.09424 -11.20372,14.98188 -2.56135,9.80708 -3.90825,24.50195 -4.03678,43.89599 -0.12797,19.30905 1.01747,33.76844 3.32558,43.13697 2.34715,9.34867 5.87783,13.70231 10.41653,13.18561 4.59252,-0.52282 7.75202,-5.62758 9.69917,-15.26021 1.00308,-4.92745 1.69519,-10.98406 2.1786,-18.25136 0.47116,-7.06918 0.74141,-15.22837 0.92214,-24.5498 0.18149,-9.36019 0.2281,-17.51071 0.0129,-24.56976 -0.22014,-7.24946 -0.71457,-13.25554 -1.59217,-18.09612 -1.69,-9.56978 -4.87912,-14.52358 -9.72221,-14.4732 z m 0.98363,-15.04438 c 5.63272,0.0142 10.0127,3.37874 13.07574,9.70038 1.28428,2.64952 2.34076,5.81451 3.19543,9.4928 2.96373,12.53832 3.29509,29.8744 2.75873,52.90179 -0.53448,22.94627 -1.66806,40.319 -4.95462,52.93409 -0.95502,3.67644 -2.07167,6.85111 -3.37635,9.53502 -3.11458,6.41079 -7.30335,9.97716 -12.58746,10.63161 -7.51073,0.93022 -13.38123,-4.49264 -17.26435,-16.46715 -0.50322,-1.57192 -0.96949,-3.24394 -1.39971,-5.01705 0,0 0,0 0,0 -2.84743,-11.74889 -4.13198,-28.0932 -4.07386,-48.71901 0.0583,-20.69306 1.44219,-37.4069 4.53192,-49.88765 0,0 0,-10e-6 0,-10e-6 0.46573,-1.88021 0.97014,-3.6653 1.51433,-5.35537 4.19745,-13.00581 10.55951,-19.76968 18.5802,-19.74945 z"
         id="path4389"
         inkscape:connector-curvature="0" />
      <path
         style="fill:#80b3ff"
         d="m 300.06934,759.30052 c -2.8132,-0.61978 -5.4781,0.40788 -7.91852,3.14601 0,0 0,0 0,0 -1.65049,1.85463 -3.19468,4.49447 -4.58623,7.91895 -3.37532,8.34426 -5.92693,21.76915 -6.48821,39.6438 -0.55899,17.80204 1.12944,31.48905 3.88627,40.28629 1.1371,3.57103 2.46613,6.39762 3.94326,8.47854 0,0 0,0 0,0 2.18529,3.07309 4.68884,4.52462 7.45033,4.42705 4.70592,-0.16627 7.68778,-4.59177 9.45173,-13.04757 1.83505,-8.72507 2.33484,-20.88557 2.99028,-37.75346 0.65766,-16.92511 1.10731,-29.08134 -0.097,-38.10115 -1.13449,-8.82573 -3.83813,-13.94232 -8.63188,-14.99846 z m 2.43946,-13.35236 c 7.7586,1.98256 12.22946,9.15414 14.3116,20.6642 2.17053,11.73105 1.75144,26.71604 0.93638,46.89873 -0.8134,20.14184 -1.60859,35.05445 -4.606,46.17244 -2.91246,10.83947 -7.7367,16.73611 -15.32187,17.21832 -2.58282,0.1642 -5.03827,-0.34195 -7.35393,-1.55027 -4.41546,-2.30483 -8.31872,-7.17495 -11.44496,-14.70387 -4.69171,-11.41916 -7.46652,-28.73813 -6.83863,-51.04698 0.63017,-22.38942 4.3936,-39.4545 9.90967,-50.2999 3.67151,-7.20458 8.01459,-11.56837 12.72897,-13.14214 2.46944,-0.82431 5.03606,-0.88582 7.67877,-0.21053 z"
         id="path4391"
         inkscape:connector-curvature="0" />
      <path
         style="fill:#80b3ff"
         d="m 336.58756,859.95075 c 2.97464,0.0978 5.95157,0.2162 8.93085,0.35559 1.95963,0.0924 3.91995,0.19389 5.88087,0.30458 -3.24309,-28.07627 -2.14082,-55.32445 3.30681,-81.74455 -2.05621,-0.0412 -4.1124,-0.0586 -6.16883,-0.0517 -3.58232,0.0131 -7.16205,0.0997 -10.74056,0.2619 0.79324,-4.54046 1.6984,-9.06264 2.71548,-13.56655 3.64184,0.005 7.28149,0.0869 10.91962,0.24435 2.05677,0.0891 4.11216,0.2022 6.16632,0.3386 2.9727,1.14941 5.93714,2.32213 8.8937,3.51564 -7.89648,29.32504 -9.93098,59.84963 -6.10352,91.57378 4.94596,0.34966 9.89498,0.75776 14.84577,1.22467 0.50077,3.88685 1.09718,7.79547 1.78923,11.72584 -9.92479,-0.5589 -19.85622,-0.88096 -29.78101,-0.98071 -2.98911,-0.0298 -5.977,-0.0393 -8.96367,-0.0292 -0.65939,-4.40657 -1.22308,-8.79729 -1.69106,-13.17217 z"
         id="path4393"
         inkscape:connector-curvature="0" />
      <path
         style="fill:#80b3ff"
         d="m 415.33206,799.15302 c -4.459,-1.95395 -8.60471,-0.64473 -12.00002,4.37302 -3.30257,4.9068 -5.92473,13.66151 -6.32694,26.01392 -0.40126,12.32333 1.60847,22.27625 4.60713,28.94538 3.06895,6.73219 7.16794,10.31643 11.80889,11.00417 4.72564,0.70028 7.65039,-1.80487 9.26968,-7.18065 1.68735,-5.549 1.96318,-13.61191 2.18943,-24.81935 0.22667,-11.22846 0.29003,-19.38855 -1.07426,-25.81963 -1.29514,-6.29344 -3.93493,-10.52787 -8.47391,-12.51686 z m 2.27214,-8.58067 c 7.16402,3.45278 11.44057,9.59055 13.7633,17.92643 2.41005,8.49711 2.66301,18.53828 2.46254,31.78612 -0.20041,13.24396 -0.77122,22.95646 -3.60401,29.85087 -2.74799,6.71388 -7.48694,9.94667 -15.03033,9.08688 -7.46584,-0.85095 -14.18313,-5.46291 -19.37936,-14.47213 -0.79801,-1.3961 -1.54919,-2.88233 -2.24763,-4.45672 0,0 0,0 0,0 -3.78303,-8.51949 -6.09418,-19.83139 -5.62338,-33.08935 0.47165,-13.28203 3.54324,-23.28054 7.77321,-29.68816 0,0 0,0 0,0 0.78177,-1.18486 1.60656,-2.25346 2.46811,-3.20591 5.62704,-6.20603 12.3186,-7.15944 19.41755,-3.73803 z"
         id="path4395"
         inkscape:connector-curvature="0" />
      <path
         style="fill:#80b3ff"
         d="m 453.58822,874.93815 c 4.89047,1.12393 9.76909,2.3135 14.63409,3.56837 -3.30627,-18.615 -3.4581,-36.07193 -0.45548,-52.37077 -5.27714,-1.44756 -10.58153,-2.78444 -15.91574,-4.00029 0.48984,-2.84121 1.06859,-5.65189 1.73624,-8.43204 5.30075,1.41793 10.56577,2.94808 15.79799,4.57965 2.81599,1.49282 5.62751,2.99446 8.43476,4.50442 -4.31474,17.81457 -4.57065,37.17207 -0.76774,58.07252 4.84782,1.33392 9.68092,2.73296 14.49753,4.19681 0.47846,2.53938 1.01838,5.10342 1.61975,7.69214 -12.50686,-3.44255 -25.13816,-6.41603 -37.8561,-8.91922 -0.65055,-2.98992 -1.22565,-5.95379 -1.7253,-8.89159 z"
         id="path4397"
         inkscape:connector-curvature="0" />
      <path
         style="fill:#80b3ff"
         d="m 525.66998,854.23554 c -4.30314,-2.37685 -7.82405,-2.4462 -10.35738,0.0785 -2.47029,2.48237 -3.9761,7.61561 -3.60518,15.46121 0.37034,7.83324 2.43668,14.49883 5.36175,19.41411 2.97889,4.94876 6.81638,8.1756 11.26169,9.83951 4.495,1.6825 7.39242,1.00017 8.96108,-1.84932 1.61198,-2.89667 1.85853,-7.89627 1.35036,-15.04309 -0.5091,-7.16006 -1.50326,-12.77755 -3.56579,-17.39657 -2.00943,-4.57197 -5.0567,-8.10169 -9.40653,-10.50432 z m 0.71945,-5.34541 c 6.83398,3.95955 11.72343,9.196 15.07476,15.46849 3.42182,6.34367 5.12675,13.4344 5.79097,21.96443 0.66364,8.52266 -0.0418,14.39106 -2.87487,17.71726 -2.78007,3.27883 -7.50636,3.81992 -14.63715,1.30614 -7.11011,-2.50648 -13.33275,-6.95258 -18.27407,-13.79455 -4.86759,-6.78991 -8.15335,-15.59637 -8.54431,-25.5677 -0.39105,-9.97368 2.29251,-16.30773 6.55951,-19.07791 4.35983,-2.81937 10.0825,-1.96916 16.90516,1.98384 z"
         id="path4399"
         inkscape:connector-curvature="0" />
    </g>
    <g
       id="g4513"
       transform="matrix(0.85662078,0,0,0.85662078,154.41232,-347.0862)"
       style="fill:#808080">
      <path
         sodipodi:nodetypes="cccccc"
         inkscape:connector-curvature="0"
         id="path4472"
         d="M 223.24513,998.55815 C 173.89779,961.16936 95.934614,942.05788 14.737952,942.0311 c -81.174239,0.0895 -154.825892,0.86343 -212.574632,26.95942 50.74351,34.54548 137.153779,69.21098 214.07642,74.90988 l -1.235683,0 c 81.141674,-0.1055 158.996363,-7.948 208.241073,-45.34225 z"
         style="opacity:1;fill:#808080;fill-opacity:1;stroke:none;stroke-width:5;stroke-linecap:round;stroke-linejoin:round;stroke-miterlimit:4;stroke-dasharray:none;stroke-opacity:1" />
      <path
         sodipodi:nodetypes="cccc"
         inkscape:connector-curvature="0"
         id="path4482"
         d="m -156.21951,966.09515 c 22.5171,12.18637 -88.64546,-70.41764 -173.94827,-108.89442 l 134.35029,123.03655 z"
         style="opacity:1;fill:#808080;fill-rule:evenodd;stroke:none;stroke-width:1px;stroke-linecap:butt;stroke-linejoin:miter;stroke-opacity:1" />
      <path
         sodipodi:nodetypes="cccc"
         inkscape:connector-curvature="0"
         id="path4484"
         d="m -195.16147,970.33782 -69.29647,65.05378 c 46.52157,-15.6647 123.89454,-50.46971 103.2376,-52.32586 z"
         style="opacity:1;fill:#808080;fill-rule:evenodd;stroke:none;stroke-width:1px;stroke-linecap:butt;stroke-linejoin:miter;stroke-opacity:1" />
      <path
         sodipodi:nodetypes="cccc"
         inkscape:connector-curvature="0"
         id="path4490"
         d="M 67.88225,950.53883 C 53.42432,924.22206 31.211886,901.35585 -9.8994948,886.89922 4.3894638,907.74026 16.214221,928.5813 -2.3722292,949.42234 Z"
         style="fill:#808080;fill-rule:evenodd;stroke:none;stroke-width:1px;stroke-linecap:butt;stroke-linejoin:miter;stroke-opacity:1" />
      <path
         sodipodi:nodetypes="cccc"
         inkscape:connector-curvature="0"
         id="path4492"
         d="m 103.23759,1033.9774 c -5.923122,15.2838 -38.321506,35.3971 -74.953319,41.0122 0,0 26.7232,-27.7906 15.973658,-35.0103 z"
         style="fill:#808080;fill-rule:evenodd;stroke:none;stroke-width:1px;stroke-linecap:butt;stroke-linejoin:miter;stroke-opacity:1" />
      <path
         sodipodi:nodetypes="cccc"
         inkscape:connector-curvature="0"
         id="path4494"
         d="m -90.72287,1017.35 c 3.52573,0.7169 9.77651,-1.2912 -8.48528,21.2133 31.274666,3.418 43.645868,-9.8353 41.012191,-9.8996 z"
         style="fill:#808080;fill-rule:evenodd;stroke:none;stroke-width:1px;stroke-linecap:butt;stroke-linejoin:miter;stroke-opacity:1" />
      <path
         sodipodi:nodetypes="cccc"
         inkscape:connector-curvature="0"
         id="path4496"
         d="m -71.39697,947.88198 c -33.56552,-22.56897 -46.05868,-20.95161 -63.63961,-26.87006 12.45669,18.4341 29.74961,35.2152 16.97056,32.52691 z"
         style="fill:#808080;fill-rule:evenodd;stroke:none;stroke-width:1px;stroke-linecap:butt;stroke-linejoin:miter;stroke-opacity:1" />
      <path
         id="path5239"
         d="m -335.30317,863.43824 129.34447,118.4526 -63.635,59.74016 c 34.67185,-11.6747 86.45493,-33.9738 102.04673,-45.34784 22.37344,11.75694 48.0096,22.78504 74.960357,31.81534 -1.29107,2.9401 -4.66105,7.9564 -11.758887,16.7033 23.946898,2.6171 36.775858,-4.5279 40.307036,-8.0543 25.001479,6.7743 50.502504,11.5561 75.042795,13.382 10.22964,-0.023 20.401643,-0.1752 30.472146,-0.4909 2.338041,10.0906 -18.329869,31.59 -18.329869,31.59 32.143192,-4.927 61.023664,-21.0173 71.621177,-35.2122 48.422685,-5.4287 91.768945,-17.2446 123.343225,-41.2206 -39.16558,-29.67423 -96.36536,-47.8241 -158.892269,-54.06859 -14.508,-23.75446 -36.331674,-44.25531 -74.254565,-57.59073 12.610115,18.39238 23.2882767,36.78709 12.8516843,55.17948 -27.8070753,0.0746 -54.7281843,0.37484 -80.2916703,1.9204 -29.17118,-18.51036 -41.19598,-17.43225 -57.69818,-22.98757 7.04488,10.42541 15.63081,20.31773 19.45487,26.46295 -17.30983,2.21401 -33.86073,5.34012 -49.52932,9.74535 -28.39037,-21.43675 -103.35845,-72.19007 -165.05473,-100.01885 z M 11.004331,1050.1295 c -0.379544,8e-4 -0.756075,0.01 -1.1357654,0.01 l 1.2360834,0 c -0.03328,0 -0.06703,0 -0.100318,-0.01 z"
         style="opacity:0.6;fill:#000000;fill-opacity:1;stroke:none;stroke-width:5;stroke-linecap:round;stroke-linejoin:round;stroke-miterlimit:4;stroke-dasharray:none;stroke-opacity:1;filter:url(#filter5241)"
         inkscape:connector-curvature="0" />
      <path
         style="opacity:1;fill:#808080;fill-opacity:1;stroke:none;stroke-width:5;stroke-linecap:round;stroke-linejoin:round;stroke-miterlimit:4;stroke-dasharray:none;stroke-opacity:1"
         d="M -96.822266,424.48633 -26.3125,489.05859 -61.001953,521.625 c 18.900726,-6.36423 47.12932,-18.52018 55.6289061,-24.7207 12.1964713,6.40928 26.1715519,12.421 40.8632809,17.34375 -0.703803,1.60273 -2.540886,4.33726 -6.410156,9.10547 13.054227,1.42669 20.047699,-2.46828 21.972656,-4.39063 13.629098,3.69285 27.530514,6.29957 40.908204,7.29492 5.576501,-0.0123 11.121582,-0.0955 16.611332,-0.26758 1.27454,5.50069 -9.992192,17.22071 -9.992192,17.22071 17.522272,-2.6859 33.265932,-11.45722 39.042972,-19.19532 26.39672,-2.95935 50.02614,-9.40056 67.23828,-22.4707 -21.3504,-16.17647 -52.53181,-26.07054 -86.61719,-29.47461 -7.90877,-12.94931 -19.805546,-24.12497 -40.478515,-31.39453 6.874172,10.02627 12.695177,20.05381 7.005859,30.08008 -15.158516,0.0407 -29.834065,0.20434 -43.769531,1.04687 C 25.0998,461.71215 18.544701,462.29986 9.5488281,459.27148 13.389216,464.9547 18.069678,470.34732 20.154297,473.69727 10.71816,474.9042 1.695742,476.60834 -6.8457031,479.00977 -22.322193,467.32392 -63.18967,439.65668 -96.822266,424.48633 Z M 91.960938,526.25781 c -0.206901,4.6e-4 -0.41216,0.004 -0.619141,0.004 l 0.673828,0 c -0.01814,-10e-4 -0.03654,-0.003 -0.05469,-0.004 z"
         transform="matrix(1.8344192,0,0,1.8344192,-152.55466,78.514449)"
         id="path5224"
         inkscape:connector-curvature="0" />
      <path
         inkscape:connector-curvature="0"
         id="path4500"
         d="m 158.13,984.4479 a 7.0852434,7.0852434 0 0 0 -1.8037,2.82025 7.0852434,7.0852434 0 0 0 4.41894,8.99205 7.0852434,7.0852434 0 0 0 8.99276,-4.41727 l 0.002,-0.005 a 7.0852434,7.0852434 0 0 0 0.0191,-0.0621 l -11.6283,-7.32838 z"
         style="opacity:1;fill:#ffffff;fill-opacity:1;stroke:none;stroke-width:5;stroke-linecap:round;stroke-linejoin:round;stroke-miterlimit:4;stroke-dasharray:none;stroke-opacity:1" />
      <path
         inkscape:connector-curvature="0"
         id="path4507"
         d="m 158,1007.8622 4,9 8,-8 11.5,8 9.5,-7.5 5.5,4.5"
         style="fill:#808080;fill-rule:evenodd;stroke:#ffffff;stroke-width:1px;stroke-linecap:butt;stroke-linejoin:miter;stroke-opacity:1" />
      <path
         sodipodi:nodetypes="cc"
         inkscape:connector-curvature="0"
         id="path4509"
         d="m 123.5,988.8622 c -11.57046,9.45927 -4.98583,28.6944 9,31"
         style="fill:#808080;fill-rule:evenodd;stroke:#ffffff;stroke-width:1px;stroke-linecap:butt;stroke-linejoin:miter;stroke-opacity:1" />
      <path
         style="fill:#808080;fill-rule:evenodd;stroke:#ffffff;stroke-width:0.74906248px;stroke-linecap:butt;stroke-linejoin:miter;stroke-opacity:1"
         d="m 133.83196,991.76506 c -8.667,7.08559 -3.7347,21.49394 6.74156,23.22094"
         id="path4511"
         inkscape:connector-curvature="0"
         sodipodi:nodetypes="cc" />
    </g>
    <g
       id="g5400"
       transform="matrix(0.0124449,0.37029758,-0.36965354,0.01024587,418.45055,313.6304)">
      <path
         inkscape:connector-curvature="0"
         id="path5402"
         d="m 77.610898,1176.5396 29.104092,-32.0145 -0.97014,-60.1484"
         style="fill:none;fill-rule:evenodd;stroke:#000000;stroke-width:8;stroke-linecap:round;stroke-linejoin:round;stroke-miterlimit:4;stroke-dasharray:none;stroke-opacity:1" />
      <path
         style="fill:none;fill-rule:evenodd;stroke:#000000;stroke-width:8;stroke-linecap:round;stroke-linejoin:round;stroke-miterlimit:4;stroke-dasharray:none;stroke-opacity:1"
         d="m -33.003855,1172.659 -29.104092,-32.0145 0.97014,-60.1484"
         id="path5404"
         inkscape:connector-curvature="0" />
      <path
         inkscape:connector-curvature="0"
         id="path5406"
         d="m -46.125911,1208.5467 -29.10409,32.0145 0.97014,60.1484"
         style="fill:none;fill-rule:evenodd;stroke:#000000;stroke-width:8;stroke-linecap:round;stroke-linejoin:round;stroke-miterlimit:4;stroke-dasharray:none;stroke-opacity:1" />
      <path
         style="fill:none;fill-rule:evenodd;stroke:#000000;stroke-width:8;stroke-linecap:round;stroke-linejoin:round;stroke-miterlimit:4;stroke-dasharray:none;stroke-opacity:1"
         d="m 90.563227,1208.5467 29.104093,32.0145 -0.97014,60.1484"
         id="path5408"
         inkscape:connector-curvature="0" />
      <path
         style="fill:none;fill-rule:evenodd;stroke:#000000;stroke-width:8;stroke-linecap:round;stroke-linejoin:round;stroke-miterlimit:4;stroke-dasharray:none;stroke-opacity:1"
         d="m -45.937759,1296.6598 -20.957208,37.852 14.783323,58.3115"
         id="path5410"
         inkscape:connector-curvature="0" />
      <path
         inkscape:connector-curvature="0"
         id="path5412"
         d="m 89.31088,1298.6701 20.95721,37.852 -14.783325,58.3115"
         style="fill:none;fill-rule:evenodd;stroke:#000000;stroke-width:8;stroke-linecap:round;stroke-linejoin:round;stroke-miterlimit:4;stroke-dasharray:none;stroke-opacity:1" />
      <path
         inkscape:connector-curvature="0"
         id="path5414"
         d="m -47.255632,1210.4206 c -54.789828,210.6256 237.273452,205.2808 140.740165,-42.7853 l -23.291099,-0.41 19.406591,0.1841 c -9.66406,-19.7659 -19.803958,-34.7636 -30.503207,-44.177 18.159857,-11.5475 -2.621768,-43.6413 -14.142528,-48.3922 7.920191,19.7812 8.430111,31.4419 2.017905,40.3979 -8.488989,-3.8348 -17.322016,-4.1773 -26.570017,-0.4222 -5.747401,-9.1744 -4.590326,-20.7554 4.081233,-39.9161 -11.623183,4.2031 -33.558165,34.885 -16.7177713,47.4262 -11.0644369,8.5703 -22.6612077,22.653 -34.9233447,43.201 l -4.290211,-0.084 c -6.953638,15.9537 -12.15509,30.936 -15.807716,44.9777 z"
         style="opacity:0.6;fill:#000000;fill-rule:evenodd;stroke:#2b1100;stroke-width:6.66220379;stroke-linecap:round;stroke-linejoin:round;stroke-miterlimit:4;stroke-dasharray:none;stroke-opacity:1;filter:url(#filter5330)"
         transform="matrix(0.92502597,0,0,0.92502597,2.0264971,98.087335)" />
      <path
         style="fill:#2b1100;fill-rule:evenodd;stroke:#2b1100;stroke-width:5.8974967;stroke-linecap:round;stroke-linejoin:round;stroke-miterlimit:4;stroke-dasharray:none;stroke-opacity:1"
         d="m 23.868628,1134.4927 c 50.968047,4.9338 23.951426,-40.7883 10.818094,-46.2041 10.427851,26.0441 6.723953,36.3222 -10.818094,46.2041 z"
         id="path5416"
         inkscape:connector-curvature="0"
         sodipodi:nodetypes="ccc" />
      <path
         sodipodi:nodetypes="ccc"
         inkscape:connector-curvature="0"
         id="path5418"
         d="m 25.331728,1134.981 c -51.136132,2.6798 -22.1281069,-41.8056 -8.768569,-46.6365 -11.5670203,25.5586 -8.3203067,35.9902 8.768569,46.6365 z"
         style="fill:#2b1100;fill-rule:evenodd;stroke:#2b1100;stroke-width:5.8974967;stroke-linecap:round;stroke-linejoin:round;stroke-miterlimit:4;stroke-dasharray:none;stroke-opacity:1" />
      <path
         sodipodi:nodetypes="ccc"
         inkscape:connector-curvature="0"
         id="path5420"
         d="m -29.589163,1169.2636 c 41.66416,-70.303 75.051585,-57.8385 103.804585,0.9701 z"
         style="fill:#b94b00;fill-opacity:1;fill-rule:evenodd;stroke:none;stroke-width:4;stroke-linecap:round;stroke-linejoin:round;stroke-miterlimit:4;stroke-dasharray:none;stroke-opacity:1" />
      <path
         sodipodi:nodetypes="ccc"
         inkscape:connector-curvature="0"
         id="path5422"
         d="m -32.946,1168.4871 110.59553,1.9403 c 91.14971,234.2319 -209.08368,224.0196 -110.59553,-1.9403 z"
         style="fill:#f39560;fill-opacity:1;fill-rule:evenodd;stroke:none;stroke-width:4;stroke-linecap:round;stroke-linejoin:round;stroke-miterlimit:4;stroke-dasharray:none;stroke-opacity:1" />
      <path
         sodipodi:nodetypes="cc"
         inkscape:connector-curvature="0"
         id="path5424"
         d="M 23.28327,1169.7487 22.356695,1339.243"
         style="fill:#deaa87;fill-rule:evenodd;stroke:#b94b00;stroke-width:4;stroke-linecap:round;stroke-linejoin:round;stroke-miterlimit:4;stroke-dasharray:none;stroke-opacity:1" />
      <path
         sodipodi:nodetypes="cc"
         inkscape:connector-curvature="0"
         id="path5426"
         d="m 19.177423,1128.2731 c -12.575391,2.4981 -25.2336156,15.3385 -38.320382,34.9249"
         style="fill:#000000;fill-opacity:0;fill-rule:evenodd;stroke:#f39560;stroke-width:4;stroke-linecap:round;stroke-linejoin:round;stroke-miterlimit:4;stroke-dasharray:none;stroke-opacity:1;filter:url(#filter4528)" />
      <path
         sodipodi:nodetypes="cc"
         inkscape:connector-curvature="0"
         id="path5428"
         d="m -25.223542,1175.5695 c -22.160268,46.8609 -24.255894,91.8837 -13.581906,109.1404"
         style="fill:#000000;fill-opacity:0;fill-rule:evenodd;stroke:#b94b00;stroke-width:4;stroke-linecap:round;stroke-linejoin:round;stroke-miterlimit:4;stroke-dasharray:none;stroke-opacity:1" />
    </g>
    <g
       id="g922"
       transform="matrix(2.7781721,0,0,2.7781721,-61.102959,-284.93677)">
      <g
         style="fill:#4d4d4d;fill-opacity:1"
         id="g4696"
         transform="translate(14.552083,10.870558)">
        <text
           id="text4599"
           y="195.84135"
           x="36.555801"
           style="font-style:normal;font-variant:normal;font-weight:normal;font-stretch:normal;font-size:25.36360359px;line-height:1.25;font-family:'Tlwg Typo';-inkscape-font-specification:'Tlwg Typo';letter-spacing:0px;word-spacing:0px;fill:url(#linearGradient2418);fill-opacity:1;stroke:none;stroke-width:0.63409007"
           xml:space="preserve"><tspan
             style="font-style:normal;font-variant:normal;font-weight:normal;font-stretch:normal;font-family:'Ubuntu Condensed';-inkscape-font-specification:'Ubuntu Condensed, ';fill:url(#linearGradient2418);fill-opacity:1;stroke-width:0.63409007"
             y="195.84135"
             x="36.555801"
             id="tspan4597"
             sodipodi:role="line">Test</tspan></text>
        <text
           id="text4603"
           y="195.84135"
           x="75.426941"
           style="font-style:normal;font-variant:normal;font-weight:normal;font-stretch:normal;font-size:25.36360359px;line-height:1.25;font-family:'Tlwg Typo';-inkscape-font-specification:'Tlwg Typo';letter-spacing:0px;word-spacing:0px;fill:#00ccff;fill-opacity:1;stroke:none;stroke-width:0.63409007"
           xml:space="preserve"><tspan
             style="font-style:normal;font-variant:normal;font-weight:normal;font-stretch:normal;font-family:'Ubuntu Condensed';-inkscape-font-specification:'Ubuntu Condensed, ';fill:#00ccff;fill-opacity:1;stroke-width:0.63409007"
             y="195.84135"
             x="75.426941"
             id="tspan4601"
             sodipodi:role="line">Flows</tspan></text>
      </g>
      <path
         inkscape:connector-curvature="0"
         id="path2342"
         d="m 58.34214,196.45831 c 8.701078,-13.35219 14.741059,3.74805 19.18081,-13.96559"
         style="opacity:1;fill:url(#linearGradient944);fill-opacity:1;stroke:none;stroke-width:0.07234693px;stroke-linecap:butt;stroke-linejoin:miter;stroke-opacity:1" />
    </g>
    <g
       transform="matrix(0.0124449,0.37029758,-0.36965354,0.01024587,883.72681,488.99288)"
       id="g6401">
      <path
         style="fill:none;fill-rule:evenodd;stroke:#000000;stroke-width:8;stroke-linecap:round;stroke-linejoin:round;stroke-miterlimit:4;stroke-dasharray:none;stroke-opacity:1"
         d="m 77.610898,1176.5396 29.104092,-32.0145 -0.97014,-60.1484"
         id="path6403"
         inkscape:connector-curvature="0" />
      <path
         inkscape:connector-curvature="0"
         id="path6405"
         d="m -33.003855,1172.659 -29.104092,-32.0145 0.97014,-60.1484"
         style="fill:none;fill-rule:evenodd;stroke:#000000;stroke-width:8;stroke-linecap:round;stroke-linejoin:round;stroke-miterlimit:4;stroke-dasharray:none;stroke-opacity:1" />
      <path
         style="fill:none;fill-rule:evenodd;stroke:#000000;stroke-width:8;stroke-linecap:round;stroke-linejoin:round;stroke-miterlimit:4;stroke-dasharray:none;stroke-opacity:1"
         d="m -46.125911,1208.5467 -29.10409,32.0145 0.97014,60.1484"
         id="path6407"
         inkscape:connector-curvature="0" />
      <path
         inkscape:connector-curvature="0"
         id="path6409"
         d="m 90.563227,1208.5467 29.104093,32.0145 -0.97014,60.1484"
         style="fill:none;fill-rule:evenodd;stroke:#000000;stroke-width:8;stroke-linecap:round;stroke-linejoin:round;stroke-miterlimit:4;stroke-dasharray:none;stroke-opacity:1" />
      <path
         inkscape:connector-curvature="0"
         id="path6411"
         d="m -45.937759,1296.6598 -20.957208,37.852 14.783323,58.3115"
         style="fill:none;fill-rule:evenodd;stroke:#000000;stroke-width:8;stroke-linecap:round;stroke-linejoin:round;stroke-miterlimit:4;stroke-dasharray:none;stroke-opacity:1" />
      <path
         style="fill:none;fill-rule:evenodd;stroke:#000000;stroke-width:8;stroke-linecap:round;stroke-linejoin:round;stroke-miterlimit:4;stroke-dasharray:none;stroke-opacity:1"
         d="m 89.31088,1298.6701 20.95721,37.852 -14.783325,58.3115"
         id="path6413"
         inkscape:connector-curvature="0" />
      <path
         transform="matrix(0.92502597,0,0,0.92502597,2.0264971,98.087335)"
         style="opacity:0.6;fill:#000000;fill-rule:evenodd;stroke:#2b1100;stroke-width:6.66220379;stroke-linecap:round;stroke-linejoin:round;stroke-miterlimit:4;stroke-dasharray:none;stroke-opacity:1;filter:url(#filter5330)"
         d="m -47.255632,1210.4206 c -54.789828,210.6256 237.273452,205.2808 140.740165,-42.7853 l -23.291099,-0.41 19.406591,0.1841 c -9.66406,-19.7659 -19.803958,-34.7636 -30.503207,-44.177 18.159857,-11.5475 -2.621768,-43.6413 -14.142528,-48.3922 7.920191,19.7812 8.430111,31.4419 2.017905,40.3979 -8.488989,-3.8348 -17.322016,-4.1773 -26.570017,-0.4222 -5.747401,-9.1744 -4.590326,-20.7554 4.081233,-39.9161 -11.623183,4.2031 -33.558165,34.885 -16.7177713,47.4262 -11.0644369,8.5703 -22.6612077,22.653 -34.9233447,43.201 l -4.290211,-0.084 c -6.953638,15.9537 -12.15509,30.936 -15.807716,44.9777 z"
         id="path6415"
         inkscape:connector-curvature="0" />
      <path
         sodipodi:nodetypes="ccc"
         inkscape:connector-curvature="0"
         id="path6417"
         d="m 23.868628,1134.4927 c 50.968047,4.9338 23.951426,-40.7883 10.818094,-46.2041 10.427851,26.0441 6.723953,36.3222 -10.818094,46.2041 z"
         style="fill:#2b1100;fill-rule:evenodd;stroke:#2b1100;stroke-width:5.8974967;stroke-linecap:round;stroke-linejoin:round;stroke-miterlimit:4;stroke-dasharray:none;stroke-opacity:1" />
      <path
         style="fill:#2b1100;fill-rule:evenodd;stroke:#2b1100;stroke-width:5.8974967;stroke-linecap:round;stroke-linejoin:round;stroke-miterlimit:4;stroke-dasharray:none;stroke-opacity:1"
         d="m 25.331728,1134.981 c -51.136132,2.6798 -22.1281069,-41.8056 -8.768569,-46.6365 -11.5670203,25.5586 -8.3203067,35.9902 8.768569,46.6365 z"
         id="path6419"
         inkscape:connector-curvature="0"
         sodipodi:nodetypes="ccc" />
      <path
         style="fill:#b94b00;fill-opacity:1;fill-rule:evenodd;stroke:none;stroke-width:4;stroke-linecap:round;stroke-linejoin:round;stroke-miterlimit:4;stroke-dasharray:none;stroke-opacity:1"
         d="m -29.589163,1169.2636 c 41.66416,-70.303 75.051585,-57.8385 103.804585,0.9701 z"
         id="path6421"
         inkscape:connector-curvature="0"
         sodipodi:nodetypes="ccc" />
      <path
         style="fill:#f39560;fill-opacity:1;fill-rule:evenodd;stroke:none;stroke-width:4;stroke-linecap:round;stroke-linejoin:round;stroke-miterlimit:4;stroke-dasharray:none;stroke-opacity:1"
         d="m -32.946,1168.4871 110.59553,1.9403 c 91.14971,234.2319 -209.08368,224.0196 -110.59553,-1.9403 z"
         id="path6423"
         inkscape:connector-curvature="0"
         sodipodi:nodetypes="ccc" />
      <path
         style="fill:#deaa87;fill-rule:evenodd;stroke:#b94b00;stroke-width:4;stroke-linecap:round;stroke-linejoin:round;stroke-miterlimit:4;stroke-dasharray:none;stroke-opacity:1"
         d="M 23.28327,1169.7487 22.356695,1339.243"
         id="path6425"
         inkscape:connector-curvature="0"
         sodipodi:nodetypes="cc" />
      <path
         style="fill:#000000;fill-opacity:0;fill-rule:evenodd;stroke:#f39560;stroke-width:4;stroke-linecap:round;stroke-linejoin:round;stroke-miterlimit:4;stroke-dasharray:none;stroke-opacity:1;filter:url(#filter4528)"
         d="m 19.177423,1128.2731 c -12.575391,2.4981 -25.2336156,15.3385 -38.320382,34.9249"
         id="path6427"
         inkscape:connector-curvature="0"
         sodipodi:nodetypes="cc" />
      <path
         style="fill:#000000;fill-opacity:0;fill-rule:evenodd;stroke:#b94b00;stroke-width:4;stroke-linecap:round;stroke-linejoin:round;stroke-miterlimit:4;stroke-dasharray:none;stroke-opacity:1"
         d="m -25.223542,1175.5695 c -22.160268,46.8609 -24.255894,91.8837 -13.581906,109.1404"
         id="path6429"
         inkscape:connector-curvature="0"
         sodipodi:nodetypes="cc" />
    </g>
    <g
       id="g6431"
       transform="matrix(0.0124449,0.37029758,-0.36965354,0.01024587,534.41606,636.07109)">
      <path
         inkscape:connector-curvature="0"
         id="path6433"
         d="m 77.610898,1176.5396 29.104092,-32.0145 -0.97014,-60.1484"
         style="fill:none;fill-rule:evenodd;stroke:#000000;stroke-width:8;stroke-linecap:round;stroke-linejoin:round;stroke-miterlimit:4;stroke-dasharray:none;stroke-opacity:1" />
      <path
         style="fill:none;fill-rule:evenodd;stroke:#000000;stroke-width:8;stroke-linecap:round;stroke-linejoin:round;stroke-miterlimit:4;stroke-dasharray:none;stroke-opacity:1"
         d="m -33.003855,1172.659 -29.104092,-32.0145 0.97014,-60.1484"
         id="path6435"
         inkscape:connector-curvature="0" />
      <path
         inkscape:connector-curvature="0"
         id="path6437"
         d="m -46.125911,1208.5467 -29.10409,32.0145 0.97014,60.1484"
         style="fill:none;fill-rule:evenodd;stroke:#000000;stroke-width:8;stroke-linecap:round;stroke-linejoin:round;stroke-miterlimit:4;stroke-dasharray:none;stroke-opacity:1" />
      <path
         style="fill:none;fill-rule:evenodd;stroke:#000000;stroke-width:8;stroke-linecap:round;stroke-linejoin:round;stroke-miterlimit:4;stroke-dasharray:none;stroke-opacity:1"
         d="m 90.563227,1208.5467 29.104093,32.0145 -0.97014,60.1484"
         id="path6439"
         inkscape:connector-curvature="0" />
      <path
         style="fill:none;fill-rule:evenodd;stroke:#000000;stroke-width:8;stroke-linecap:round;stroke-linejoin:round;stroke-miterlimit:4;stroke-dasharray:none;stroke-opacity:1"
         d="m -45.937759,1296.6598 -20.957208,37.852 14.783323,58.3115"
         id="path6441"
         inkscape:connector-curvature="0" />
      <path
         inkscape:connector-curvature="0"
         id="path6443"
         d="m 89.31088,1298.6701 20.95721,37.852 -14.783325,58.3115"
         style="fill:none;fill-rule:evenodd;stroke:#000000;stroke-width:8;stroke-linecap:round;stroke-linejoin:round;stroke-miterlimit:4;stroke-dasharray:none;stroke-opacity:1" />
      <path
         inkscape:connector-curvature="0"
         id="path6445"
         d="m -47.255632,1210.4206 c -54.789828,210.6256 237.273452,205.2808 140.740165,-42.7853 l -23.291099,-0.41 19.406591,0.1841 c -9.66406,-19.7659 -19.803958,-34.7636 -30.503207,-44.177 18.159857,-11.5475 -2.621768,-43.6413 -14.142528,-48.3922 7.920191,19.7812 8.430111,31.4419 2.017905,40.3979 -8.488989,-3.8348 -17.322016,-4.1773 -26.570017,-0.4222 -5.747401,-9.1744 -4.590326,-20.7554 4.081233,-39.9161 -11.623183,4.2031 -33.558165,34.885 -16.7177713,47.4262 -11.0644369,8.5703 -22.6612077,22.653 -34.9233447,43.201 l -4.290211,-0.084 c -6.953638,15.9537 -12.15509,30.936 -15.807716,44.9777 z"
         style="opacity:0.6;fill:#000000;fill-rule:evenodd;stroke:#2b1100;stroke-width:6.66220379;stroke-linecap:round;stroke-linejoin:round;stroke-miterlimit:4;stroke-dasharray:none;stroke-opacity:1;filter:url(#filter5330)"
         transform="matrix(0.92502597,0,0,0.92502597,2.0264971,98.087335)" />
      <path
         style="fill:#2b1100;fill-rule:evenodd;stroke:#2b1100;stroke-width:5.8974967;stroke-linecap:round;stroke-linejoin:round;stroke-miterlimit:4;stroke-dasharray:none;stroke-opacity:1"
         d="m 23.868628,1134.4927 c 50.968047,4.9338 23.951426,-40.7883 10.818094,-46.2041 10.427851,26.0441 6.723953,36.3222 -10.818094,46.2041 z"
         id="path6447"
         inkscape:connector-curvature="0"
         sodipodi:nodetypes="ccc" />
      <path
         sodipodi:nodetypes="ccc"
         inkscape:connector-curvature="0"
         id="path6449"
         d="m 25.331728,1134.981 c -51.136132,2.6798 -22.1281069,-41.8056 -8.768569,-46.6365 -11.5670203,25.5586 -8.3203067,35.9902 8.768569,46.6365 z"
         style="fill:#2b1100;fill-rule:evenodd;stroke:#2b1100;stroke-width:5.8974967;stroke-linecap:round;stroke-linejoin:round;stroke-miterlimit:4;stroke-dasharray:none;stroke-opacity:1" />
      <path
         sodipodi:nodetypes="ccc"
         inkscape:connector-curvature="0"
         id="path6451"
         d="m -29.589163,1169.2636 c 41.66416,-70.303 75.051585,-57.8385 103.804585,0.9701 z"
         style="fill:#b94b00;fill-opacity:1;fill-rule:evenodd;stroke:none;stroke-width:4;stroke-linecap:round;stroke-linejoin:round;stroke-miterlimit:4;stroke-dasharray:none;stroke-opacity:1" />
      <path
         sodipodi:nodetypes="ccc"
         inkscape:connector-curvature="0"
         id="path6453"
         d="m -32.946,1168.4871 110.59553,1.9403 c 91.14971,234.2319 -209.08368,224.0196 -110.59553,-1.9403 z"
         style="fill:#f39560;fill-opacity:1;fill-rule:evenodd;stroke:none;stroke-width:4;stroke-linecap:round;stroke-linejoin:round;stroke-miterlimit:4;stroke-dasharray:none;stroke-opacity:1" />
      <path
         sodipodi:nodetypes="cc"
         inkscape:connector-curvature="0"
         id="path6455"
         d="M 23.28327,1169.7487 22.356695,1339.243"
         style="fill:#deaa87;fill-rule:evenodd;stroke:#b94b00;stroke-width:4;stroke-linecap:round;stroke-linejoin:round;stroke-miterlimit:4;stroke-dasharray:none;stroke-opacity:1" />
      <path
         sodipodi:nodetypes="cc"
         inkscape:connector-curvature="0"
         id="path6457"
         d="m 19.177423,1128.2731 c -12.575391,2.4981 -25.2336156,15.3385 -38.320382,34.9249"
         style="fill:#000000;fill-opacity:0;fill-rule:evenodd;stroke:#f39560;stroke-width:4;stroke-linecap:round;stroke-linejoin:round;stroke-miterlimit:4;stroke-dasharray:none;stroke-opacity:1;filter:url(#filter4528)" />
      <path
         sodipodi:nodetypes="cc"
         inkscape:connector-curvature="0"
         id="path6459"
         d="m -25.223542,1175.5695 c -22.160268,46.8609 -24.255894,91.8837 -13.581906,109.1404"
         style="fill:#000000;fill-opacity:0;fill-rule:evenodd;stroke:#b94b00;stroke-width:4;stroke-linecap:round;stroke-linejoin:round;stroke-miterlimit:4;stroke-dasharray:none;stroke-opacity:1" />
    </g>
  </g>
</svg>
